<?xml version="1.0" encoding="UTF-8"?>
<svg xmlns="http://www.w3.org/2000/svg" xmlns:xlink="http://www.w3.org/1999/xlink" width="124px" height="56px" viewBox="0 0 124 56" version="1.1">
<g id="surface1">
<path style=" stroke:none;fill-rule:nonzero;fill:rgb(2.352941%,2.745098%,96.862745%);fill-opacity:1;" d="M 88.84375 56.136719 C 59.226562 56.136719 29.679688 56.136719 0.136719 56.136719 C 0.136719 37.46875 0.136719 18.800781 0.136719 0.136719 C 41.46875 0.136719 82.800781 0.136719 124.136719 0.136719 C 124.136719 18.800781 124.136719 37.46875 124.136719 56.136719 C 112.394531 56.136719 100.652344 56.136719 88.84375 56.136719 M 17.746094 5.144531 C 17.101562 5.59375 16.460938 6.042969 15.726562 6.515625 C 13.339844 8.308594 11.324219 10.457031 9.6875 12.957031 C 9.570312 13.132812 9.527344 13.355469 9.464844 13.558594 C 9.464844 13.558594 9.464844 13.546875 9.390625 13.464844 C 9.328125 13.546875 9.269531 13.632812 9.164062 13.796875 C 8.96875 14.039062 8.789062 14.292969 8.574219 14.519531 C 1.46875 22 1.511719 32.988281 8.800781 40.054688 C 8.992188 40.242188 9.160156 40.457031 9.34375 40.734375 C 9.382812 40.765625 9.421875 40.796875 9.464844 40.816406 C 9.464844 40.816406 9.453125 40.820312 9.460938 40.914062 C 12.402344 45.546875 16.421875 48.894531 21.480469 50.980469 C 23.484375 51.804688 25.554688 52.402344 27.828125 52.636719 C 28.695312 52.699219 29.5625 52.765625 30.550781 52.855469 C 31.5 52.8125 32.449219 52.769531 33.515625 52.746094 C 36 52.507812 38.410156 51.988281 40.800781 50.972656 C 41.75 50.507812 42.695312 50.039062 43.730469 49.546875 C 48.574219 46.785156 52.167969 42.863281 54.492188 37.792969 C 56.105469 34.277344 56.882812 30.582031 56.8125 26.621094 C 57.707031 25.40625 58.316406 24.054688 58.785156 22.667969 C 59.65625 24.496094 61.046875 25.777344 62.949219 26.402344 C 66.121094 27.441406 69.085938 26.921875 71.78125 24.957031 C 71.984375 24.808594 72.136719 24.445312 72.140625 24.179688 C 72.171875 22.371094 72.160156 20.5625 72.15625 18.753906 C 72.15625 18.582031 72.121094 18.410156 72.105469 18.261719 C 69.898438 18.261719 67.746094 18.261719 65.613281 18.261719 C 65.613281 19.246094 65.613281 20.179688 65.613281 21.167969 C 66.558594 21.167969 67.449219 21.167969 68.390625 21.167969 C 68.390625 21.558594 68.347656 21.898438 68.398438 22.226562 C 68.496094 22.832031 68.195312 23.132812 67.667969 23.21875 C 66.984375 23.332031 66.285156 23.476562 65.605469 23.433594 C 63.675781 23.308594 62.261719 21.714844 62.199219 19.707031 C 62.128906 17.527344 63.398438 15.839844 65.359375 15.554688 C 66.867188 15.332031 68.144531 15.882812 69.324219 16.859375 C 70.105469 15.914062 70.875 14.988281 71.644531 14.054688 C 71.519531 13.941406 71.457031 13.878906 71.386719 13.820312 C 67.871094 10.828125 60.792969 11.089844 58.460938 16.757812 C 58.398438 16.542969 58.335938 16.324219 58.265625 16.113281 C 56.972656 12.386719 54.691406 9.621094 50.789062 8.484375 C 49.972656 8.246094 49.113281 8.15625 48.238281 7.914062 C 45.925781 5.847656 43.332031 4.246094 40.332031 3.109375 C 39.957031 2.980469 39.585938 2.851562 39.132812 2.660156 C 38.441406 2.46875 37.75 2.277344 36.972656 2.042969 C 36.324219 1.925781 35.675781 1.804688 34.929688 1.648438 C 34.195312 1.585938 33.464844 1.527344 32.628906 1.421875 C 31.847656 1.414062 31.070312 1.410156 30.175781 1.382812 C 27.960938 1.503906 25.777344 1.792969 23.554688 2.515625 C 22.375 2.988281 21.195312 3.464844 19.917969 3.945312 C 19.226562 4.335938 18.53125 4.730469 17.746094 5.144531 M 94.609375 19.289062 C 94.628906 19.171875 94.644531 19.054688 94.679688 18.835938 C 96.617188 21.332031 98.480469 23.734375 100.351562 26.132812 C 100.496094 26.316406 100.699219 26.582031 100.882812 26.589844 C 101.976562 26.632812 103.074219 26.609375 104.175781 26.609375 C 104.175781 21.773438 104.175781 17.019531 104.175781 12.246094 C 102.871094 12.246094 101.613281 12.246094 100.253906 12.246094 C 100.253906 14.71875 100.253906 17.171875 100.253906 19.808594 C 98.328125 17.328125 96.53125 15.011719 94.730469 12.703125 C 94.585938 12.519531 94.382812 12.253906 94.199219 12.246094 C 93.039062 12.207031 91.875 12.226562 90.707031 12.226562 C 90.707031 17.0625 90.707031 21.816406 90.707031 26.5625 C 92.027344 26.5625 93.296875 26.5625 94.613281 26.5625 C 94.613281 24.140625 94.613281 21.773438 94.609375 19.289062 M 101.96875 40.464844 C 101.96875 38.707031 101.96875 36.953125 101.96875 35.195312 C 99.726562 35.195312 97.5625 35.195312 95.421875 35.195312 C 95.421875 36.1875 95.421875 37.121094 95.421875 38.105469 C 96.371094 38.105469 97.261719 38.105469 98.191406 38.105469 C 98.191406 38.519531 98.15625 38.878906 98.199219 39.234375 C 98.261719 39.726562 98.0625 40.03125 97.601562 40.113281 C 96.921875 40.234375 96.226562 40.410156 95.546875 40.378906 C 93.304688 40.269531 91.78125 38.304688 92.039062 35.953125 C 92.300781 33.605469 94.15625 32.074219 96.390625 32.519531 C 97.367188 32.710938 98.285156 33.226562 99.289062 33.617188 C 99.945312 32.820312 100.695312 31.921875 101.46875 30.984375 C 101.277344 30.820312 101.113281 30.671875 100.9375 30.539062 C 98.875 29.015625 96.558594 28.613281 94.082031 29.027344 C 90.652344 29.59375 88.164062 32.414062 87.933594 35.953125 C 87.703125 39.421875 89.773438 42.464844 93.132812 43.453125 C 95.917969 44.269531 98.554688 43.820312 101.039062 42.316406 C 101.726562 41.902344 102.148438 41.433594 101.96875 40.464844 M 114.769531 33.320312 C 114.234375 32.054688 113.6875 30.789062 113.171875 29.515625 C 113.03125 29.175781 112.855469 29.035156 112.472656 29.046875 C 111.574219 29.078125 110.667969 29.085938 109.769531 29.042969 C 109.285156 29.019531 109.0625 29.191406 108.878906 29.632812 C 107.613281 32.695312 106.320312 35.75 105.035156 38.804688 C 104.382812 40.359375 103.722656 41.914062 103.03125 43.546875 C 103.742188 43.546875 104.367188 43.554688 104.992188 43.542969 C 105.730469 43.53125 106.632812 43.757812 107.15625 43.410156 C 107.65625 43.085938 107.757812 42.152344 108.035156 41.488281 C 108.042969 41.464844 108.050781 41.445312 108.058594 41.421875 C 108.136719 41.035156 108.386719 40.964844 108.75 40.96875 C 110.257812 40.988281 111.769531 40.992188 113.28125 40.964844 C 113.671875 40.960938 113.84375 41.109375 113.96875 41.445312 C 114.175781 42.015625 114.40625 42.582031 114.65625 43.136719 C 114.730469 43.296875 114.898438 43.523438 115.027344 43.527344 C 116.34375 43.554688 117.660156 43.542969 119.070312 43.542969 C 117.621094 40.101562 116.210938 36.757812 114.769531 33.320312 M 87.730469 43.539062 C 87.738281 43.394531 87.796875 43.230469 87.746094 43.109375 C 85.839844 38.5625 83.925781 34.015625 81.984375 29.480469 C 81.902344 29.285156 81.578125 29.085938 81.355469 29.074219 C 80.457031 29.03125 79.554688 29.09375 78.65625 29.042969 C 78.136719 29.015625 77.921875 29.21875 77.730469 29.679688 C 75.894531 34.085938 74.035156 38.484375 72.179688 42.882812 C 72.097656 43.082031 72.019531 43.285156 71.917969 43.546875 C 73.1875 43.546875 74.378906 43.523438 75.570312 43.558594 C 75.988281 43.570312 76.160156 43.402344 76.285156 43.039062 C 76.476562 42.484375 76.734375 41.957031 76.925781 41.402344 C 77.039062 41.066406 77.21875 40.960938 77.566406 40.96875 C 78.464844 40.992188 79.367188 40.96875 80.265625 40.980469 C 81.046875 40.988281 81.984375 40.765625 82.5625 41.121094 C 83.078125 41.4375 83.214844 42.398438 83.476562 43.089844 C 83.609375 43.4375 83.789062 43.566406 84.167969 43.554688 C 85.316406 43.527344 86.464844 43.546875 87.730469 43.539062 M 117.371094 16.476562 C 116.84375 15.230469 116.289062 13.996094 115.804688 12.734375 C 115.617188 12.238281 115.359375 12.101562 114.859375 12.125 C 114.003906 12.164062 113.144531 12.167969 112.292969 12.121094 C 111.820312 12.097656 111.628906 12.285156 111.457031 12.691406 C 109.613281 17.101562 107.753906 21.503906 105.898438 25.910156 C 105.8125 26.113281 105.746094 26.324219 105.640625 26.613281 C 106.902344 26.613281 108.089844 26.59375 109.273438 26.625 C 109.695312 26.636719 109.871094 26.472656 109.996094 26.101562 C 110.167969 25.589844 110.433594 25.109375 110.582031 24.589844 C 110.714844 24.125 110.976562 24.023438 111.421875 24.039062 C 112.34375 24.074219 113.269531 24.042969 114.191406 24.050781 C 114.886719 24.054688 115.757812 23.828125 116.230469 24.160156 C 116.734375 24.507812 116.859375 25.398438 117.148438 26.054688 C 117.195312 26.15625 117.210938 26.285156 117.28125 26.363281 C 117.378906 26.464844 117.515625 26.601562 117.632812 26.601562 C 118.933594 26.617188 120.238281 26.613281 121.644531 26.613281 C 120.207031 23.207031 118.804688 19.890625 117.371094 16.476562 M 89.128906 26.335938 C 87.203125 21.765625 85.273438 17.199219 83.363281 12.621094 C 83.207031 12.253906 83.023438 12.113281 82.621094 12.125 C 81.71875 12.15625 80.816406 12.160156 79.917969 12.125 C 79.464844 12.105469 79.253906 12.25 79.074219 12.679688 C 77.21875 17.132812 75.335938 21.570312 73.460938 26.015625 C 73.390625 26.1875 73.339844 26.371094 73.261719 26.613281 C 73.953125 26.613281 74.558594 26.621094 75.164062 26.613281 C 75.902344 26.597656 76.804688 26.820312 77.332031 26.476562 C 77.828125 26.152344 77.933594 25.222656 78.210938 24.5625 C 78.226562 24.519531 78.238281 24.460938 78.269531 24.441406 C 78.464844 24.304688 78.660156 24.070312 78.859375 24.066406 C 80.414062 24.035156 81.96875 24.035156 83.523438 24.066406 C 83.722656 24.070312 84 24.277344 84.09375 24.460938 C 84.375 25.023438 84.566406 25.632812 84.832031 26.203125 C 84.910156 26.371094 85.117188 26.589844 85.269531 26.59375 C 86.507812 26.625 87.75 26.613281 88.988281 26.601562 C 89.046875 26.601562 89.105469 26.503906 89.128906 26.335938 M 72.59375 35.804688 C 73.382812 32.238281 71.667969 29.671875 68.058594 29.285156 C 66.167969 29.082031 64.242188 29.191406 62.328125 29.164062 C 61.796875 29.15625 61.265625 29.160156 60.726562 29.160156 C 60.726562 33.992188 60.726562 38.742188 60.726562 43.496094 C 62.050781 43.496094 63.339844 43.496094 64.683594 43.496094 C 64.683594 42.128906 64.683594 40.804688 64.683594 39.441406 C 65.527344 39.441406 66.3125 39.464844 67.097656 39.4375 C 69.882812 39.332031 71.757812 38.113281 72.59375 35.804688 Z M 72.59375 35.804688 "/>
<path style=" stroke:none;fill-rule:nonzero;fill:rgb(99.607843%,99.607843%,99.607843%);fill-opacity:1;" d="M 9.335938 40.65625 C 9.160156 40.457031 8.992188 40.242188 8.800781 40.054688 C 1.511719 32.988281 1.46875 22 8.574219 14.519531 C 8.789062 14.292969 8.96875 14.039062 9.230469 13.75 C 9.355469 13.652344 9.410156 13.597656 9.464844 13.546875 C 9.464844 13.546875 9.464844 13.558594 9.503906 13.558594 C 11.226562 11.980469 13.101562 10.683594 15.195312 9.621094 C 15.75 9.390625 16.257812 9.167969 16.8125 8.945312 C 17.191406 8.816406 17.523438 8.6875 17.90625 8.570312 C 18.375 8.46875 18.785156 8.359375 19.253906 8.253906 C 19.632812 8.183594 19.964844 8.105469 20.351562 8.035156 C 20.6875 7.996094 20.96875 7.953125 21.308594 7.910156 C 21.636719 7.886719 21.90625 7.867188 22.222656 7.851562 C 22.421875 7.90625 22.570312 7.949219 22.710938 8.054688 C 22.898438 10.917969 23.09375 13.722656 23.285156 16.527344 C 21.445312 16.679688 19.753906 17.007812 18.167969 17.777344 C 13.972656 19.816406 11.917969 23.601562 12.707031 27.84375 C 13.480469 32 17.46875 35.675781 21.5 35.941406 C 25.757812 36.226562 30.046875 33.28125 31.402344 29.125 C 31.484375 28.878906 31.445312 28.59375 31.445312 28.285156 C 30.59375 27.398438 29.765625 26.542969 28.917969 25.65625 C 28.726562 25.667969 28.503906 25.667969 28.382812 25.78125 C 27.640625 26.464844 26.917969 27.167969 26.203125 27.878906 C 25.652344 28.425781 25.128906 28.992188 24.597656 29.550781 C 24.605469 29.550781 24.605469 29.539062 24.5625 29.53125 C 24.414062 29.632812 24.308594 29.742188 24.167969 29.875 C 23.957031 29.878906 23.714844 29.929688 23.617188 29.835938 C 22.953125 29.1875 22.324219 28.511719 21.683594 27.847656 C 20.816406 26.945312 19.953125 26.042969 19.019531 25.070312 C 19.558594 24.5625 20.050781 24.097656 20.578125 23.621094 C 20.824219 23.386719 21.035156 23.167969 21.289062 22.933594 C 21.640625 22.605469 21.949219 22.292969 22.292969 21.964844 C 22.636719 21.636719 22.945312 21.324219 23.289062 21 C 23.488281 20.816406 23.644531 20.648438 23.847656 20.464844 C 24.175781 20.15625 24.460938 19.867188 24.78125 19.558594 C 25.179688 19.179688 25.542969 18.816406 25.945312 18.433594 C 26.378906 18.019531 26.777344 17.621094 27.21875 17.203125 C 27.542969 16.941406 27.863281 16.710938 27.574219 16.222656 C 27.378906 15.664062 27.183594 15.15625 27.007812 14.609375 C 27.125 14.5 27.21875 14.429688 27.363281 14.355469 C 27.738281 14.21875 28.066406 14.082031 28.445312 13.945312 C 29.183594 13.671875 29.875 13.398438 30.609375 13.121094 C 31.042969 12.953125 31.429688 12.796875 31.859375 12.636719 C 32.089844 12.554688 32.277344 12.480469 32.511719 12.394531 C 32.882812 12.253906 33.207031 12.121094 33.578125 11.980469 C 33.867188 11.875 34.105469 11.773438 34.394531 11.671875 C 34.730469 11.558594 35.019531 11.445312 35.355469 11.320312 C 35.683594 11.191406 35.960938 11.078125 36.289062 10.964844 C 36.617188 10.839844 36.902344 10.71875 37.230469 10.597656 C 37.472656 10.511719 37.664062 10.425781 37.90625 10.339844 C 38.152344 10.253906 38.351562 10.171875 38.601562 10.082031 C 38.792969 10.011719 38.9375 9.949219 39.121094 9.886719 C 39.3125 9.824219 39.464844 9.757812 39.664062 9.683594 C 39.914062 9.589844 40.113281 9.507812 40.363281 9.417969 C 40.640625 9.3125 40.875 9.214844 41.15625 9.113281 C 41.492188 9.007812 41.773438 8.90625 42.105469 8.808594 C 42.4375 8.71875 42.71875 8.628906 43.054688 8.542969 C 44.832031 8.363281 46.554688 8.179688 48.277344 7.996094 C 49.113281 8.15625 49.972656 8.246094 50.789062 8.484375 C 54.691406 9.621094 56.972656 12.386719 58.265625 16.113281 C 58.335938 16.324219 58.398438 16.542969 58.492188 16.84375 C 57.890625 18.847656 58.015625 20.734375 58.714844 22.601562 C 58.316406 24.054688 57.707031 25.40625 56.757812 26.6875 C 54.878906 29.085938 52.53125 30.71875 49.832031 31.851562 C 48.257812 32.515625 46.648438 33.09375 45.046875 33.695312 C 44.59375 33.863281 44.40625 34.050781 44.613281 34.585938 C 45.621094 37.171875 46.566406 39.777344 47.582031 42.359375 C 47.8125 42.945312 47.648438 43.160156 47.125 43.351562 C 45.519531 43.941406 43.929688 44.5625 42.285156 45.183594 C 41.859375 45.359375 41.480469 45.519531 41.050781 45.6875 C 40.722656 45.789062 40.445312 45.882812 40.121094 45.996094 C 39.925781 46.082031 39.769531 46.15625 39.570312 46.238281 C 39.375 46.289062 39.230469 46.335938 39.050781 46.355469 C 38.957031 46.253906 38.890625 46.175781 38.8125 46.050781 C 38.710938 45.765625 38.625 45.527344 38.515625 45.246094 C 38.421875 45.003906 38.347656 44.804688 38.269531 44.5625 C 38.21875 44.414062 38.171875 44.308594 38.125 44.160156 C 38.046875 43.964844 37.972656 43.8125 37.890625 43.609375 C 37.753906 43.21875 37.621094 42.882812 37.480469 42.496094 C 36.902344 40.898438 36.332031 39.351562 35.714844 37.667969 C 33.820312 39.824219 31.792969 41.511719 29.429688 42.859375 C 28.558594 43.261719 27.734375 43.648438 26.855469 44.042969 C 24.460938 44.808594 22.089844 45.246094 19.597656 45.050781 C 16.390625 44.792969 13.53125 43.699219 10.929688 41.84375 C 10.441406 41.496094 9.945312 41.160156 9.453125 40.820312 C 9.453125 40.820312 9.464844 40.816406 9.457031 40.78125 C 9.414062 40.71875 9.375 40.6875 9.335938 40.65625 M 39.644531 21.386719 C 40.226562 22.894531 40.804688 24.402344 41.390625 26.007812 C 41.515625 26.339844 41.640625 26.667969 41.785156 27.039062 C 43.4375 26.394531 45.042969 25.8125 46.605469 25.136719 C 47.234375 24.867188 47.828125 24.449219 48.335938 23.988281 C 49.808594 22.652344 50.109375 20.886719 49.265625 18.992188 C 48.46875 17.203125 47.015625 16.324219 45.050781 16.5 C 42.746094 16.707031 40.769531 17.910156 38.574219 18.59375 C 38.691406 18.847656 38.765625 19.007812 38.84375 19.265625 C 39.109375 19.9375 39.375 20.613281 39.644531 21.386719 Z M 39.644531 21.386719 "/>
<path style=" stroke:none;fill-rule:nonzero;fill:rgb(98.431373%,0.784314%,3.529412%);fill-opacity:1;" d="M 94.609375 19.347656 C 94.613281 21.773438 94.613281 24.140625 94.613281 26.5625 C 93.296875 26.5625 92.027344 26.5625 90.707031 26.5625 C 90.707031 21.816406 90.707031 17.0625 90.707031 12.226562 C 91.875 12.226562 93.039062 12.207031 94.199219 12.246094 C 94.382812 12.253906 94.585938 12.519531 94.730469 12.703125 C 96.53125 15.011719 98.328125 17.328125 100.253906 19.808594 C 100.253906 17.171875 100.253906 14.71875 100.253906 12.246094 C 101.613281 12.246094 102.871094 12.246094 104.175781 12.246094 C 104.175781 17.019531 104.175781 21.773438 104.175781 26.609375 C 103.074219 26.609375 101.976562 26.632812 100.882812 26.589844 C 100.699219 26.582031 100.496094 26.316406 100.351562 26.132812 C 98.480469 23.734375 96.617188 21.332031 94.679688 18.835938 C 94.644531 19.054688 94.628906 19.171875 94.609375 19.347656 Z M 94.609375 19.347656 "/>
<path style=" stroke:none;fill-rule:nonzero;fill:rgb(98.823529%,0.784314%,3.137255%);fill-opacity:1;" d="M 58.75 22.636719 C 58.015625 20.734375 57.890625 18.847656 58.523438 16.878906 C 60.792969 11.089844 67.871094 10.828125 71.386719 13.820312 C 71.457031 13.878906 71.519531 13.941406 71.644531 14.054688 C 70.875 14.988281 70.105469 15.914062 69.324219 16.859375 C 68.144531 15.882812 66.867188 15.332031 65.359375 15.554688 C 63.398438 15.839844 62.128906 17.527344 62.199219 19.707031 C 62.261719 21.714844 63.675781 23.308594 65.605469 23.433594 C 66.285156 23.476562 66.984375 23.332031 67.667969 23.21875 C 68.195312 23.132812 68.496094 22.832031 68.398438 22.226562 C 68.347656 21.898438 68.390625 21.558594 68.390625 21.167969 C 67.449219 21.167969 66.558594 21.167969 65.613281 21.167969 C 65.613281 20.179688 65.613281 19.246094 65.613281 18.261719 C 67.746094 18.261719 69.898438 18.261719 72.105469 18.261719 C 72.121094 18.410156 72.15625 18.582031 72.15625 18.753906 C 72.160156 20.5625 72.171875 22.371094 72.140625 24.179688 C 72.136719 24.445312 71.984375 24.808594 71.78125 24.957031 C 69.085938 26.921875 66.121094 27.441406 62.949219 26.402344 C 61.046875 25.777344 59.65625 24.496094 58.75 22.636719 Z M 58.75 22.636719 "/>
<path style=" stroke:none;fill-rule:nonzero;fill:rgb(98.823529%,98.823529%,100%);fill-opacity:1;" d="M 101.96875 40.527344 C 102.148438 41.433594 101.726562 41.902344 101.039062 42.316406 C 98.554688 43.820312 95.917969 44.269531 93.132812 43.453125 C 89.773438 42.464844 87.703125 39.421875 87.933594 35.953125 C 88.164062 32.414062 90.652344 29.59375 94.082031 29.027344 C 96.558594 28.613281 98.875 29.015625 100.9375 30.539062 C 101.113281 30.671875 101.277344 30.820312 101.46875 30.984375 C 100.695312 31.921875 99.945312 32.820312 99.289062 33.617188 C 98.285156 33.226562 97.367188 32.710938 96.390625 32.519531 C 94.15625 32.074219 92.300781 33.605469 92.039062 35.953125 C 91.78125 38.304688 93.304688 40.269531 95.546875 40.378906 C 96.226562 40.410156 96.921875 40.234375 97.601562 40.113281 C 98.0625 40.03125 98.261719 39.726562 98.199219 39.234375 C 98.15625 38.878906 98.191406 38.519531 98.191406 38.105469 C 97.261719 38.105469 96.371094 38.105469 95.421875 38.105469 C 95.421875 37.121094 95.421875 36.1875 95.421875 35.195312 C 97.5625 35.195312 99.726562 35.195312 101.96875 35.195312 C 101.96875 36.953125 101.96875 38.707031 101.96875 40.527344 Z M 101.96875 40.527344 "/>
<path style=" stroke:none;fill-rule:nonzero;fill:rgb(74.117647%,79.607843%,80%);fill-opacity:1;" d="M 42.332031 45.171875 C 43.929688 44.5625 45.519531 43.941406 47.125 43.351562 C 47.648438 43.160156 47.8125 42.945312 47.582031 42.359375 C 46.566406 39.777344 45.621094 37.171875 44.613281 34.585938 C 44.40625 34.050781 44.59375 33.863281 45.046875 33.695312 C 46.648438 33.09375 48.257812 32.515625 49.832031 31.851562 C 52.53125 30.71875 54.878906 29.085938 56.738281 26.734375 C 56.882812 30.582031 56.105469 34.277344 54.492188 37.792969 C 52.167969 42.863281 48.574219 46.785156 43.644531 49.515625 C 43.519531 49.253906 43.464844 49.023438 43.445312 48.785156 C 43.390625 48.132812 43.460938 47.445312 43.273438 46.832031 C 43.09375 46.238281 42.65625 45.722656 42.332031 45.171875 Z M 42.332031 45.171875 "/>
<path style=" stroke:none;fill-rule:nonzero;fill:rgb(98.823529%,98.823529%,100%);fill-opacity:1;" d="M 114.785156 33.371094 C 116.210938 36.757812 117.621094 40.101562 119.070312 43.542969 C 117.660156 43.542969 116.34375 43.554688 115.027344 43.527344 C 114.898438 43.523438 114.730469 43.296875 114.65625 43.136719 C 114.40625 42.582031 114.175781 42.015625 113.96875 41.445312 C 113.84375 41.109375 113.671875 40.960938 113.28125 40.964844 C 111.769531 40.992188 110.257812 40.988281 108.75 40.96875 C 108.386719 40.964844 108.136719 41.035156 108.058594 41.421875 C 108.050781 41.445312 108.042969 41.464844 108.035156 41.488281 C 107.757812 42.152344 107.65625 43.085938 107.15625 43.410156 C 106.632812 43.757812 105.730469 43.53125 104.992188 43.542969 C 104.367188 43.554688 103.742188 43.546875 103.03125 43.546875 C 103.722656 41.914062 104.382812 40.359375 105.035156 38.804688 C 106.320312 35.75 107.613281 32.695312 108.878906 29.632812 C 109.0625 29.191406 109.285156 29.019531 109.769531 29.042969 C 110.667969 29.085938 111.574219 29.078125 112.472656 29.046875 C 112.855469 29.035156 113.03125 29.175781 113.171875 29.515625 C 113.6875 30.789062 114.234375 32.054688 114.785156 33.371094 M 112.46875 37.472656 C 112.003906 36.296875 111.539062 35.121094 111.015625 33.792969 C 110.449219 35.238281 109.949219 36.515625 109.414062 37.875 C 110.425781 37.875 111.320312 37.882812 112.214844 37.863281 C 112.3125 37.859375 112.410156 37.679688 112.46875 37.472656 Z M 112.46875 37.472656 "/>
<path style=" stroke:none;fill-rule:nonzero;fill:rgb(99.215686%,99.215686%,100%);fill-opacity:1;" d="M 87.671875 43.542969 C 86.464844 43.546875 85.316406 43.527344 84.167969 43.554688 C 83.789062 43.566406 83.609375 43.4375 83.476562 43.089844 C 83.214844 42.398438 83.078125 41.4375 82.5625 41.121094 C 81.984375 40.765625 81.046875 40.988281 80.265625 40.980469 C 79.367188 40.96875 78.464844 40.992188 77.566406 40.96875 C 77.21875 40.960938 77.039062 41.066406 76.925781 41.402344 C 76.734375 41.957031 76.476562 42.484375 76.285156 43.039062 C 76.160156 43.402344 75.988281 43.570312 75.570312 43.558594 C 74.378906 43.523438 73.1875 43.546875 71.917969 43.546875 C 72.019531 43.285156 72.097656 43.082031 72.179688 42.882812 C 74.035156 38.484375 75.894531 34.085938 77.730469 29.679688 C 77.921875 29.21875 78.136719 29.015625 78.65625 29.042969 C 79.554688 29.09375 80.457031 29.03125 81.355469 29.074219 C 81.578125 29.085938 81.902344 29.285156 81.984375 29.480469 C 83.925781 34.015625 85.839844 38.5625 87.746094 43.109375 C 87.796875 43.230469 87.738281 43.394531 87.671875 43.542969 M 79.324219 37.875 C 80.011719 37.875 80.699219 37.875 81.480469 37.875 C 80.9375 36.492188 80.4375 35.207031 79.882812 33.792969 C 79.316406 35.222656 78.808594 36.511719 78.273438 37.875 C 78.660156 37.875 78.929688 37.875 79.324219 37.875 Z M 79.324219 37.875 "/>
<path style=" stroke:none;fill-rule:nonzero;fill:rgb(99.215686%,0.784314%,2.352941%);fill-opacity:1;" d="M 117.386719 16.523438 C 118.804688 19.890625 120.207031 23.207031 121.644531 26.613281 C 120.238281 26.613281 118.933594 26.617188 117.632812 26.601562 C 117.515625 26.601562 117.378906 26.464844 117.28125 26.363281 C 117.210938 26.285156 117.195312 26.15625 117.148438 26.054688 C 116.859375 25.398438 116.734375 24.507812 116.230469 24.160156 C 115.757812 23.828125 114.886719 24.054688 114.191406 24.050781 C 113.269531 24.042969 112.34375 24.074219 111.421875 24.039062 C 110.976562 24.023438 110.714844 24.125 110.582031 24.589844 C 110.433594 25.109375 110.167969 25.589844 109.996094 26.101562 C 109.871094 26.472656 109.695312 26.636719 109.273438 26.625 C 108.089844 26.59375 106.902344 26.613281 105.640625 26.613281 C 105.746094 26.324219 105.8125 26.113281 105.898438 25.910156 C 107.753906 21.503906 109.613281 17.101562 111.457031 12.691406 C 111.628906 12.285156 111.820312 12.097656 112.292969 12.121094 C 113.144531 12.167969 114.003906 12.164062 114.859375 12.125 C 115.359375 12.101562 115.617188 12.238281 115.804688 12.734375 C 116.289062 13.996094 116.84375 15.230469 117.386719 16.523438 M 112.925781 18.515625 C 112.621094 19.304688 112.316406 20.089844 112 20.898438 C 113.097656 20.898438 114.109375 20.898438 115.175781 20.898438 C 114.648438 19.558594 114.152344 18.289062 113.597656 16.871094 C 113.347656 17.484375 113.160156 17.953125 112.925781 18.515625 Z M 112.925781 18.515625 "/>
<path style=" stroke:none;fill-rule:nonzero;fill:rgb(99.215686%,0.784314%,2.352941%);fill-opacity:1;" d="M 89.144531 26.390625 C 89.105469 26.503906 89.046875 26.601562 88.988281 26.601562 C 87.75 26.613281 86.507812 26.625 85.269531 26.59375 C 85.117188 26.589844 84.910156 26.371094 84.832031 26.203125 C 84.566406 25.632812 84.375 25.023438 84.09375 24.460938 C 84 24.277344 83.722656 24.070312 83.523438 24.066406 C 81.96875 24.035156 80.414062 24.035156 78.859375 24.066406 C 78.660156 24.070312 78.464844 24.304688 78.269531 24.441406 C 78.238281 24.460938 78.226562 24.519531 78.210938 24.5625 C 77.933594 25.222656 77.828125 26.152344 77.332031 26.476562 C 76.804688 26.820312 75.902344 26.597656 75.164062 26.613281 C 74.558594 26.621094 73.953125 26.613281 73.261719 26.613281 C 73.339844 26.371094 73.390625 26.1875 73.460938 26.015625 C 75.335938 21.570312 77.21875 17.132812 79.074219 12.679688 C 79.253906 12.25 79.464844 12.105469 79.917969 12.125 C 80.816406 12.160156 81.71875 12.15625 82.621094 12.125 C 83.023438 12.113281 83.207031 12.253906 83.363281 12.621094 C 85.273438 17.199219 87.203125 21.765625 89.144531 26.390625 M 82.339844 20.960938 C 82.464844 20.953125 82.589844 20.945312 82.796875 20.929688 C 82.261719 19.570312 81.753906 18.277344 81.199219 16.855469 C 80.632812 18.292969 80.125 19.578125 79.578125 20.960938 C 80.527344 20.960938 81.375 20.960938 82.339844 20.960938 Z M 82.339844 20.960938 "/>
<path style=" stroke:none;fill-rule:nonzero;fill:rgb(99.607843%,99.607843%,100%);fill-opacity:1;" d="M 72.578125 35.855469 C 71.757812 38.113281 69.882812 39.332031 67.097656 39.4375 C 66.3125 39.464844 65.527344 39.441406 64.683594 39.441406 C 64.683594 40.804688 64.683594 42.128906 64.683594 43.496094 C 63.339844 43.496094 62.050781 43.496094 60.726562 43.496094 C 60.726562 38.742188 60.726562 33.992188 60.726562 29.160156 C 61.265625 29.160156 61.796875 29.15625 62.328125 29.164062 C 64.242188 29.191406 66.167969 29.082031 68.058594 29.285156 C 71.667969 29.671875 73.382812 32.238281 72.578125 35.855469 M 68.292969 35.734375 C 68.871094 35.132812 68.957031 34.425781 68.683594 33.671875 C 68.425781 32.957031 67.820312 32.628906 67.121094 32.570312 C 66.324219 32.507812 65.519531 32.558594 64.652344 32.558594 C 64.652344 32.804688 64.652344 33.023438 64.652344 33.242188 C 64.652344 34.246094 64.652344 35.253906 64.652344 36.324219 C 65.902344 36.242188 67.136719 36.613281 68.292969 35.734375 Z M 68.292969 35.734375 "/>
<path style=" stroke:none;fill-rule:nonzero;fill:rgb(74.117647%,79.215686%,80.392157%);fill-opacity:1;" d="M 9.457031 40.867188 C 9.945312 41.160156 10.441406 41.496094 10.929688 41.84375 C 13.53125 43.699219 16.390625 44.792969 19.597656 45.050781 C 22.089844 45.246094 24.460938 44.808594 26.847656 44.09375 C 26.734375 44.3125 26.597656 44.515625 26.414062 44.660156 C 24.945312 45.804688 24.292969 47.496094 24.769531 49.054688 C 25.128906 50.226562 25.96875 51.03125 26.90625 51.757812 C 27.210938 51.992188 27.453125 52.316406 27.722656 52.601562 C 25.554688 52.402344 23.484375 51.804688 21.480469 50.980469 C 16.421875 48.894531 12.402344 45.546875 9.457031 40.867188 Z M 9.457031 40.867188 "/>
<path style=" stroke:none;fill-rule:nonzero;fill:rgb(77.647059%,82.352941%,83.137255%);fill-opacity:1;" d="M 27.773438 52.617188 C 27.453125 52.316406 27.210938 51.992188 26.90625 51.757812 C 25.96875 51.03125 25.128906 50.226562 24.769531 49.054688 C 24.292969 47.496094 24.945312 45.804688 26.414062 44.660156 C 26.597656 44.515625 26.734375 44.3125 26.902344 44.082031 C 27.734375 43.648438 28.558594 43.261719 29.46875 42.890625 C 29.746094 42.910156 29.957031 42.964844 30.132812 42.914062 C 32.242188 42.285156 34.382812 42.351562 36.535156 42.5625 C 36.847656 42.59375 37.171875 42.550781 37.492188 42.542969 C 37.621094 42.882812 37.753906 43.21875 37.832031 43.601562 C 35.941406 43.132812 34.074219 42.945312 32.183594 43.269531 C 30.15625 43.617188 28.257812 44.246094 26.8125 45.847656 C 25.800781 46.96875 25.691406 48.695312 26.566406 49.902344 C 27.398438 51.054688 28.589844 51.652344 29.824219 52.222656 C 30.066406 52.332031 30.226562 52.625 30.425781 52.832031 C 29.5625 52.765625 28.695312 52.699219 27.773438 52.617188 Z M 27.773438 52.617188 "/>
<path style=" stroke:none;fill-rule:nonzero;fill:rgb(82.352941%,86.27451%,87.058824%);fill-opacity:1;" d="M 40.164062 45.980469 C 40.445312 45.882812 40.722656 45.789062 41.0625 45.734375 C 41.171875 45.90625 41.203125 46.039062 41.277344 46.148438 C 42.214844 47.523438 42.1875 48.84375 41.101562 50.136719 C 40.910156 50.367188 40.832031 50.691406 40.703125 50.972656 C 38.410156 51.988281 36 52.507812 33.441406 52.691406 C 33.226562 52.582031 33.09375 52.503906 32.949219 52.476562 C 31.289062 52.15625 29.667969 51.757812 28.265625 50.722656 C 27.050781 49.828125 26.457031 48.386719 26.953125 47.058594 C 27.34375 46.007812 28.171875 45.285156 29.152344 44.78125 C 31.777344 43.421875 34.527344 43.367188 37.339844 44.050781 C 37.597656 44.113281 37.863281 44.152344 38.128906 44.203125 C 38.171875 44.308594 38.21875 44.414062 38.234375 44.59375 C 38.117188 44.679688 38.015625 44.726562 37.949219 44.695312 C 36.46875 44.058594 34.917969 43.988281 33.335938 44.058594 C 31.648438 44.132812 30.085938 44.554688 28.75 45.601562 C 27.242188 46.785156 26.773438 48.492188 28.292969 50.007812 C 28.878906 50.59375 29.65625 51.039062 30.417969 51.386719 C 32.011719 52.117188 33.746094 52.203125 35.449219 52.039062 C 37.222656 51.871094 38.855469 51.253906 40.117188 49.878906 C 40.988281 48.929688 41.105469 47.585938 40.386719 46.527344 C 40.28125 46.367188 40.238281 46.164062 40.164062 45.980469 Z M 40.164062 45.980469 "/>
<path style=" stroke:none;fill-rule:nonzero;fill:rgb(99.215686%,16.470588%,25.098039%);fill-opacity:1;" d="M 39.078125 9.886719 C 38.9375 9.949219 38.792969 10.011719 38.597656 10.023438 C 38.488281 9.617188 38.476562 9.246094 38.363281 8.910156 C 36.976562 4.789062 32.722656 1.710938 27.949219 2.296875 C 24.683594 2.699219 22.175781 4.277344 20.511719 7.140625 C 20.363281 7.394531 20.363281 7.734375 20.296875 8.03125 C 19.964844 8.105469 19.632812 8.183594 19.253906 8.199219 C 19.269531 7.863281 19.296875 7.5625 19.421875 7.308594 C 20.15625 5.789062 21.191406 4.515625 22.570312 3.519531 C 22.96875 3.230469 23.300781 2.84375 23.660156 2.5 C 25.777344 1.792969 27.960938 1.503906 30.238281 1.441406 C 30.46875 1.621094 30.625 1.820312 30.8125 1.851562 C 33.292969 2.269531 35.304688 3.515625 36.933594 5.390625 C 38.054688 6.679688 38.890625 8.132812 39.078125 9.886719 Z M 39.078125 9.886719 "/>
<path style=" stroke:none;fill-rule:nonzero;fill:rgb(98.823529%,1.176471%,3.529412%);fill-opacity:1;" d="M 48.257812 7.957031 C 46.554688 8.179688 44.832031 8.363281 43.054688 8.488281 C 42.589844 6.449219 41.578125 4.765625 40.433594 3.148438 C 43.332031 4.246094 45.925781 5.847656 48.257812 7.957031 Z M 48.257812 7.957031 "/>
<path style=" stroke:none;fill-rule:nonzero;fill:rgb(81.176471%,85.098039%,85.882353%);fill-opacity:1;" d="M 38.125 44.160156 C 37.863281 44.152344 37.597656 44.113281 37.339844 44.050781 C 34.527344 43.367188 31.777344 43.421875 29.152344 44.78125 C 28.171875 45.285156 27.34375 46.007812 26.953125 47.058594 C 26.457031 48.386719 27.050781 49.828125 28.265625 50.722656 C 29.667969 51.757812 31.289062 52.15625 32.949219 52.476562 C 33.09375 52.503906 33.226562 52.582031 33.382812 52.683594 C 32.449219 52.769531 31.5 52.8125 30.488281 52.84375 C 30.226562 52.625 30.066406 52.332031 29.824219 52.222656 C 28.589844 51.652344 27.398438 51.054688 26.566406 49.902344 C 25.691406 48.695312 25.800781 46.96875 26.8125 45.847656 C 28.257812 44.246094 30.15625 43.617188 32.183594 43.269531 C 34.074219 42.945312 35.941406 43.132812 37.839844 43.652344 C 37.972656 43.8125 38.046875 43.964844 38.125 44.160156 Z M 38.125 44.160156 "/>
<path style=" stroke:none;fill-rule:nonzero;fill:rgb(98.039216%,1.960784%,5.098039%);fill-opacity:1;" d="M 15.144531 9.625 C 13.101562 10.683594 11.226562 11.980469 9.5 13.558594 C 9.527344 13.355469 9.570312 13.132812 9.6875 12.957031 C 11.324219 10.457031 13.339844 8.308594 15.773438 6.558594 C 15.757812 6.832031 15.6875 7.0625 15.636719 7.300781 C 15.46875 8.074219 15.308594 8.847656 15.144531 9.625 Z M 15.144531 9.625 "/>
<path style=" stroke:none;fill-rule:nonzero;fill:rgb(78.823529%,83.137255%,83.921569%);fill-opacity:1;" d="M 40.75 50.972656 C 40.832031 50.691406 40.910156 50.367188 41.101562 50.136719 C 42.1875 48.84375 42.214844 47.523438 41.277344 46.148438 C 41.203125 46.039062 41.171875 45.90625 41.109375 45.730469 C 41.480469 45.519531 41.859375 45.359375 42.285156 45.183594 C 42.65625 45.722656 43.09375 46.238281 43.273438 46.832031 C 43.460938 47.445312 43.390625 48.132812 43.445312 48.785156 C 43.464844 49.023438 43.519531 49.253906 43.601562 49.53125 C 42.695312 50.039062 41.75 50.507812 40.75 50.972656 Z M 40.75 50.972656 "/>
<path style=" stroke:none;fill-rule:nonzero;fill:rgb(99.607843%,12.941176%,19.215686%);fill-opacity:1;" d="M 40.316406 9.429688 C 40.113281 9.507812 39.914062 9.589844 39.664062 9.621094 C 39.582031 9.375 39.574219 9.171875 39.511719 8.980469 C 38.464844 5.71875 36.402344 3.375 33.253906 1.996094 C 33.042969 1.902344 32.902344 1.648438 32.730469 1.464844 C 33.464844 1.527344 34.195312 1.585938 34.984375 1.71875 C 35.140625 1.925781 35.222656 2.085938 35.347656 2.195312 C 36.1875 2.941406 37.105469 3.609375 37.855469 4.433594 C 39.144531 5.84375 40.085938 7.472656 40.316406 9.429688 Z M 40.316406 9.429688 "/>
<path style=" stroke:none;fill-rule:nonzero;fill:rgb(99.607843%,12.941176%,19.215686%);fill-opacity:1;" d="M 23.609375 2.507812 C 23.300781 2.84375 22.96875 3.230469 22.570312 3.519531 C 21.191406 4.515625 20.15625 5.789062 19.421875 7.308594 C 19.296875 7.5625 19.269531 7.863281 19.199219 8.195312 C 18.785156 8.359375 18.375 8.46875 17.90625 8.511719 C 17.914062 8.121094 17.902344 7.757812 18.054688 7.480469 C 18.59375 6.480469 19.1875 5.515625 19.753906 4.53125 C 19.863281 4.34375 19.929688 4.136719 20.015625 3.9375 C 21.195312 3.464844 22.375 2.988281 23.609375 2.507812 Z M 23.609375 2.507812 "/>
<path style=" stroke:none;fill-rule:nonzero;fill:rgb(99.607843%,10.196078%,15.294118%);fill-opacity:1;" d="M 40.363281 9.417969 C 40.085938 7.472656 39.144531 5.84375 37.855469 4.433594 C 37.105469 3.609375 36.1875 2.941406 35.347656 2.195312 C 35.222656 2.085938 35.140625 1.925781 35.03125 1.738281 C 35.675781 1.804688 36.324219 1.925781 37.019531 2.117188 C 37.183594 2.375 37.285156 2.574219 37.425781 2.742188 C 38.199219 3.664062 39.082031 4.511719 39.730469 5.515625 C 40.429688 6.59375 41.140625 7.730469 41.105469 9.117188 C 40.875 9.214844 40.640625 9.3125 40.363281 9.417969 Z M 40.363281 9.417969 "/>
<path style=" stroke:none;fill-rule:nonzero;fill:rgb(99.607843%,7.45098%,10.980392%);fill-opacity:1;" d="M 41.15625 9.113281 C 41.140625 7.730469 40.429688 6.59375 39.730469 5.515625 C 39.082031 4.511719 38.199219 3.664062 37.425781 2.742188 C 37.285156 2.574219 37.183594 2.375 37.0625 2.136719 C 37.75 2.277344 38.441406 2.46875 39.171875 2.742188 C 39.28125 3.007812 39.308594 3.214844 39.414062 3.371094 C 39.785156 3.910156 40.238281 4.394531 40.554688 4.957031 C 41.238281 6.160156 42 7.351562 42.054688 8.804688 C 41.773438 8.90625 41.492188 9.007812 41.15625 9.113281 Z M 41.15625 9.113281 "/>
<path style=" stroke:none;fill-rule:nonzero;fill:rgb(100%,15.294118%,22.352941%);fill-opacity:1;" d="M 32.679688 1.441406 C 32.902344 1.648438 33.042969 1.902344 33.253906 1.996094 C 36.402344 3.375 38.464844 5.71875 39.511719 8.980469 C 39.574219 9.171875 39.582031 9.375 39.617188 9.632812 C 39.464844 9.757812 39.3125 9.824219 39.121094 9.886719 C 38.890625 8.132812 38.054688 6.679688 36.933594 5.390625 C 35.304688 3.515625 33.292969 2.269531 30.8125 1.851562 C 30.625 1.820312 30.46875 1.621094 30.292969 1.449219 C 31.070312 1.410156 31.847656 1.414062 32.679688 1.441406 Z M 32.679688 1.441406 "/>
<path style=" stroke:none;fill-rule:nonzero;fill:rgb(100%,4.313725%,6.666667%);fill-opacity:1;" d="M 42.105469 8.808594 C 42 7.351562 41.238281 6.160156 40.554688 4.957031 C 40.238281 4.394531 39.785156 3.910156 39.414062 3.371094 C 39.308594 3.214844 39.28125 3.007812 39.214844 2.769531 C 39.585938 2.851562 39.957031 2.980469 40.382812 3.128906 C 41.578125 4.765625 42.589844 6.449219 43 8.484375 C 42.71875 8.628906 42.4375 8.71875 42.105469 8.808594 Z M 42.105469 8.808594 "/>
<path style=" stroke:none;fill-rule:nonzero;fill:rgb(99.607843%,9.019608%,13.72549%);fill-opacity:1;" d="M 19.96875 3.941406 C 19.929688 4.136719 19.863281 4.34375 19.753906 4.53125 C 19.1875 5.515625 18.59375 6.480469 18.054688 7.480469 C 17.902344 7.757812 17.914062 8.121094 17.851562 8.503906 C 17.523438 8.6875 17.191406 8.816406 16.785156 8.90625 C 16.679688 8.609375 16.5625 8.3125 16.644531 8.085938 C 17.011719 7.085938 17.433594 6.109375 17.839844 5.121094 C 18.53125 4.730469 19.226562 4.335938 19.96875 3.941406 Z M 19.96875 3.941406 "/>
<path style=" stroke:none;fill-rule:nonzero;fill:rgb(99.215686%,5.490196%,9.019608%);fill-opacity:1;" d="M 17.792969 5.132812 C 17.433594 6.109375 17.011719 7.085938 16.644531 8.085938 C 16.5625 8.3125 16.679688 8.609375 16.734375 8.90625 C 16.257812 9.167969 15.75 9.390625 15.195312 9.621094 C 15.308594 8.847656 15.46875 8.074219 15.636719 7.300781 C 15.6875 7.0625 15.757812 6.832031 15.816406 6.546875 C 16.460938 6.042969 17.101562 5.59375 17.792969 5.132812 Z M 17.792969 5.132812 "/>
<path style=" stroke:none;fill-rule:nonzero;fill:rgb(98.039216%,1.960784%,5.098039%);fill-opacity:1;" d="M 9.425781 13.503906 C 9.410156 13.597656 9.355469 13.652344 9.253906 13.710938 C 9.269531 13.632812 9.328125 13.546875 9.425781 13.503906 Z M 9.425781 13.503906 "/>
<path style=" stroke:none;fill-rule:nonzero;fill:rgb(74.117647%,79.215686%,80.392157%);fill-opacity:1;" d="M 9.339844 40.695312 C 9.375 40.6875 9.414062 40.71875 9.457031 40.789062 C 9.421875 40.796875 9.382812 40.765625 9.339844 40.695312 Z M 9.339844 40.695312 "/>
<path style=" stroke:none;fill-rule:nonzero;fill:rgb(18.823529%,20.784314%,22.745098%);fill-opacity:1;" d="M 31.464844 28.324219 C 31.445312 28.59375 31.484375 28.878906 31.402344 29.125 C 30.046875 33.28125 25.757812 36.226562 21.5 35.941406 C 17.46875 35.675781 13.480469 32 12.707031 27.84375 C 11.917969 23.601562 13.972656 19.816406 18.167969 17.777344 C 19.753906 17.007812 21.445312 16.679688 23.285156 16.527344 C 23.09375 13.722656 22.898438 10.917969 22.738281 8.070312 C 22.773438 8.019531 22.835938 8.035156 22.839844 8.078125 C 23.015625 8.421875 23.1875 8.714844 23.367188 9.054688 C 23.511719 9.320312 23.640625 9.546875 23.78125 9.820312 C 24.007812 10.253906 24.230469 10.636719 24.460938 11.078125 C 24.5625 12.167969 24.65625 13.203125 24.742188 14.296875 C 24.785156 14.949219 24.835938 15.542969 24.878906 16.195312 C 24.914062 16.878906 24.953125 17.503906 24.9375 18.132812 C 24.335938 18.230469 23.789062 18.316406 23.1875 18.402344 C 22.769531 18.507812 22.40625 18.609375 21.992188 18.714844 C 21.585938 18.875 21.230469 19.03125 20.828125 19.199219 C 20.390625 19.449219 20 19.691406 19.566406 19.945312 C 19.226562 20.214844 18.933594 20.476562 18.601562 20.757812 C 18.371094 20.992188 18.179688 21.207031 17.945312 21.449219 C 16.230469 23.617188 15.945312 25.980469 16.910156 28.484375 C 18.332031 32.191406 22.253906 34.40625 25.828125 33.464844 C 28.566406 32.746094 30.347656 30.875 31.464844 28.324219 Z M 31.464844 28.324219 "/>
<path style=" stroke:none;fill-rule:nonzero;fill:rgb(99.215686%,1.176471%,2.352941%);fill-opacity:1;" d="M 31.445312 28.285156 C 30.347656 30.875 28.566406 32.746094 25.828125 33.464844 C 22.253906 34.40625 18.332031 32.191406 16.910156 28.484375 C 15.945312 25.980469 16.230469 23.617188 17.96875 21.488281 C 18.210938 21.730469 18.359375 22 18.582031 22.175781 C 19.21875 22.683594 19.886719 23.152344 20.539062 23.636719 C 20.050781 24.097656 19.558594 24.5625 19.019531 25.070312 C 19.953125 26.042969 20.816406 26.945312 21.683594 27.847656 C 22.324219 28.511719 22.953125 29.1875 23.617188 29.835938 C 23.714844 29.929688 23.957031 29.878906 24.210938 29.859375 C 24.394531 29.730469 24.5 29.636719 24.605469 29.539062 C 24.605469 29.539062 24.605469 29.550781 24.644531 29.550781 C 25.09375 29.226562 25.523438 28.933594 25.898438 28.582031 C 26.921875 27.632812 27.925781 26.65625 28.933594 25.691406 C 29.765625 26.542969 30.59375 27.398438 31.445312 28.285156 Z M 31.445312 28.285156 "/>
<path style=" stroke:none;fill-rule:nonzero;fill:rgb(19.215686%,21.176471%,23.137255%);fill-opacity:1;" d="M 38.835938 19.171875 C 38.765625 19.007812 38.691406 18.847656 38.574219 18.59375 C 40.769531 17.910156 42.746094 16.707031 45.050781 16.5 C 47.015625 16.324219 48.46875 17.203125 49.265625 18.992188 C 50.109375 20.886719 49.808594 22.652344 48.335938 23.988281 C 47.828125 24.449219 47.234375 24.867188 46.605469 25.136719 C 45.042969 25.8125 43.4375 26.394531 41.785156 27.039062 C 41.640625 26.667969 41.515625 26.339844 41.4375 25.945312 C 42.253906 25.574219 43.046875 25.300781 43.796875 24.941406 C 44.800781 24.464844 45.605469 23.75 45.96875 22.652344 C 46.824219 20.066406 44.609375 17.71875 41.734375 18.203125 C 40.734375 18.523438 39.785156 18.847656 38.835938 19.171875 Z M 38.835938 19.171875 "/>
<path style=" stroke:none;fill-rule:nonzero;fill:rgb(99.215686%,1.176471%,2.352941%);fill-opacity:1;" d="M 41.785156 18.207031 C 44.609375 17.71875 46.824219 20.066406 45.96875 22.652344 C 45.605469 23.75 44.800781 24.464844 43.796875 24.941406 C 43.046875 25.300781 42.253906 25.574219 41.433594 25.894531 C 40.804688 24.402344 40.226562 22.894531 39.691406 21.335938 C 40.867188 20.558594 41.464844 19.476562 41.785156 18.207031 Z M 41.785156 18.207031 "/>
<path style=" stroke:none;fill-rule:nonzero;fill:rgb(100%,24.705882%,36.470588%);fill-opacity:1;" d="M 22.835938 8.035156 C 22.835938 8.035156 22.773438 8.019531 22.746094 8.007812 C 22.570312 7.949219 22.421875 7.90625 22.222656 7.800781 C 22.257812 7.492188 22.289062 7.207031 22.433594 7.003906 C 24.453125 4.179688 28.667969 2.960938 31.910156 4.28125 C 34.777344 5.449219 36.617188 7.492188 37.183594 10.597656 C 36.902344 10.71875 36.617188 10.839844 36.289062 10.910156 C 35.777344 7.59375 32.976562 5.015625 29.613281 4.761719 C 26.757812 4.546875 24.511719 5.734375 22.835938 8.035156 Z M 22.835938 8.035156 "/>
<path style=" stroke:none;fill-rule:nonzero;fill:rgb(100%,21.568627%,31.764706%);fill-opacity:1;" d="M 37.230469 10.597656 C 36.617188 7.492188 34.777344 5.449219 31.910156 4.28125 C 28.667969 2.960938 24.453125 4.179688 22.433594 7.003906 C 22.289062 7.207031 22.257812 7.492188 22.175781 7.789062 C 21.90625 7.867188 21.636719 7.886719 21.289062 7.863281 C 21.246094 7.59375 21.199219 7.304688 21.324219 7.152344 C 21.882812 6.453125 22.429688 5.722656 23.09375 5.136719 C 25.238281 3.25 27.78125 2.617188 30.5625 3.066406 C 32.945312 3.453125 34.914062 4.640625 36.351562 6.589844 C 37.164062 7.691406 37.90625 8.871094 37.859375 10.34375 C 37.664062 10.425781 37.472656 10.511719 37.230469 10.597656 Z M 37.230469 10.597656 "/>
<path style=" stroke:none;fill-rule:nonzero;fill:rgb(99.607843%,37.647059%,55.686275%);fill-opacity:1;" d="M 24.75 14.238281 C 24.65625 13.203125 24.5625 12.167969 24.484375 11.035156 C 24.648438 10.6875 24.808594 10.445312 24.945312 10.191406 C 26.320312 7.609375 29.3125 6.835938 31.574219 8.457031 C 32.769531 9.316406 33.453125 10.492188 33.53125 11.988281 C 33.207031 12.121094 32.882812 12.253906 32.515625 12.339844 C 32.492188 12.164062 32.535156 12.027344 32.527344 11.898438 C 32.449219 10.53125 31.382812 9.167969 30.097656 8.777344 C 28.613281 8.320312 27.128906 8.769531 26.203125 10.027344 C 25.289062 11.269531 25.273438 12.53125 25.972656 13.898438 C 26.179688 14.296875 26.429688 14.699219 26.988281 14.648438 C 27.183594 15.15625 27.378906 15.664062 27.523438 16.222656 C 26.859375 15.882812 26.234375 15.519531 25.648438 15.097656 C 25.316406 14.859375 25.046875 14.527344 24.75 14.238281 Z M 24.75 14.238281 "/>
<path style=" stroke:none;fill-rule:nonzero;fill:rgb(74.509804%,80%,80.392157%);fill-opacity:1;" d="M 37.480469 42.496094 C 37.171875 42.550781 36.847656 42.59375 36.535156 42.5625 C 34.382812 42.351562 32.242188 42.285156 30.132812 42.914062 C 29.957031 42.964844 29.746094 42.910156 29.511719 42.871094 C 31.792969 41.511719 33.820312 39.824219 35.714844 37.667969 C 36.332031 39.351562 36.902344 40.898438 37.480469 42.496094 Z M 37.480469 42.496094 "/>
<path style=" stroke:none;fill-rule:nonzero;fill:rgb(100%,18.823529%,27.843137%);fill-opacity:1;" d="M 37.90625 10.339844 C 37.90625 8.871094 37.164062 7.691406 36.351562 6.589844 C 34.914062 4.640625 32.945312 3.453125 30.5625 3.066406 C 27.78125 2.617188 25.238281 3.25 23.09375 5.136719 C 22.429688 5.722656 21.882812 6.453125 21.324219 7.152344 C 21.199219 7.304688 21.246094 7.59375 21.230469 7.867188 C 20.96875 7.953125 20.6875 7.996094 20.351562 8.035156 C 20.363281 7.734375 20.363281 7.394531 20.511719 7.140625 C 22.175781 4.277344 24.683594 2.699219 27.949219 2.296875 C 32.722656 1.710938 36.976562 4.789062 38.363281 8.910156 C 38.476562 9.246094 38.488281 9.617188 38.550781 10.03125 C 38.351562 10.171875 38.152344 10.253906 37.90625 10.339844 Z M 37.90625 10.339844 "/>
<path style=" stroke:none;fill-rule:nonzero;fill:rgb(88.235294%,90.588235%,90.980392%);fill-opacity:1;" d="M 38.824219 46.097656 C 38.890625 46.175781 38.957031 46.253906 39.058594 46.402344 C 39.90625 48.425781 39.660156 49.296875 38.007812 50.347656 C 35.984375 51.632812 32 51.582031 30.0625 50.246094 C 28.164062 48.933594 28.179688 46.96875 30.164062 45.792969 C 31.984375 44.710938 33.980469 44.453125 36.019531 44.988281 C 36.984375 45.242188 37.890625 45.722656 38.824219 46.097656 M 37.597656 49.84375 C 39.171875 48.757812 39.148438 47.054688 37.445312 46.121094 C 35.1875 44.882812 32.867188 44.890625 30.644531 46.242188 C 29.117188 47.167969 29.152344 49.015625 30.71875 49.894531 C 32.964844 51.152344 35.25 51.179688 37.597656 49.84375 Z M 37.597656 49.84375 "/>
<path style=" stroke:none;fill-rule:nonzero;fill:rgb(100%,27.843137%,41.176471%);fill-opacity:1;" d="M 22.839844 8.078125 C 24.511719 5.734375 26.757812 4.546875 29.613281 4.761719 C 32.976562 5.015625 35.777344 7.59375 36.242188 10.910156 C 35.960938 11.078125 35.683594 11.191406 35.351562 11.257812 C 35.210938 8.515625 32.320312 5.769531 29.550781 5.6875 C 26.839844 5.609375 24.753906 6.648438 23.355469 9.011719 C 23.1875 8.714844 23.015625 8.421875 22.839844 8.078125 Z M 22.839844 8.078125 "/>
<path style=" stroke:none;fill-rule:nonzero;fill:rgb(100%,30.980392%,45.882353%);fill-opacity:1;" d="M 23.367188 9.054688 C 24.753906 6.648438 26.839844 5.609375 29.550781 5.6875 C 32.320312 5.769531 35.210938 8.515625 35.304688 11.269531 C 35.019531 11.445312 34.730469 11.558594 34.394531 11.609375 C 34.328125 11.238281 34.371094 10.902344 34.277344 10.613281 C 33.566406 8.429688 32.089844 7.054688 29.8125 6.710938 C 27.75 6.398438 26.015625 7.101562 24.691406 8.757812 C 24.40625 9.113281 24.082031 9.433594 23.773438 9.773438 C 23.640625 9.546875 23.511719 9.320312 23.367188 9.054688 Z M 23.367188 9.054688 "/>
<path style=" stroke:none;fill-rule:nonzero;fill:rgb(84.705882%,87.843137%,88.235294%);fill-opacity:1;" d="M 40.121094 45.996094 C 40.238281 46.164062 40.28125 46.367188 40.386719 46.527344 C 41.105469 47.585938 40.988281 48.929688 40.117188 49.878906 C 38.855469 51.253906 37.222656 51.871094 35.449219 52.039062 C 33.746094 52.203125 32.011719 52.117188 30.417969 51.386719 C 29.65625 51.039062 28.878906 50.59375 28.292969 50.007812 C 26.773438 48.492188 27.242188 46.785156 28.75 45.601562 C 30.085938 44.554688 31.648438 44.132812 33.335938 44.058594 C 34.917969 43.988281 36.46875 44.058594 37.949219 44.695312 C 38.015625 44.726562 38.117188 44.679688 38.238281 44.636719 C 38.347656 44.804688 38.421875 45.003906 38.464844 45.242188 C 37.328125 44.988281 36.242188 44.5625 35.121094 44.425781 C 32.859375 44.144531 30.722656 44.582031 28.917969 46.082031 C 27.859375 46.964844 27.671875 48.675781 28.613281 49.59375 C 29.257812 50.21875 30.058594 50.738281 30.875 51.125 C 32.074219 51.699219 33.402344 51.691406 34.714844 51.667969 C 36.292969 51.636719 37.734375 51.191406 39.003906 50.257812 C 40.078125 49.472656 40.78125 48.0625 39.773438 46.59375 C 39.699219 46.488281 39.667969 46.351562 39.617188 46.226562 C 39.769531 46.15625 39.925781 46.082031 40.121094 45.996094 Z M 40.121094 45.996094 "/>
<path style=" stroke:none;fill-rule:nonzero;fill:rgb(86.27451%,89.019608%,89.411765%);fill-opacity:1;" d="M 39.570312 46.238281 C 39.667969 46.351562 39.699219 46.488281 39.773438 46.59375 C 40.78125 48.0625 40.078125 49.472656 39.003906 50.257812 C 37.734375 51.191406 36.292969 51.636719 34.714844 51.667969 C 33.402344 51.691406 32.074219 51.699219 30.875 51.125 C 30.058594 50.738281 29.257812 50.21875 28.613281 49.59375 C 27.671875 48.675781 27.859375 46.964844 28.917969 46.082031 C 30.722656 44.582031 32.859375 44.144531 35.121094 44.425781 C 36.242188 44.5625 37.328125 44.988281 38.484375 45.285156 C 38.625 45.527344 38.710938 45.765625 38.8125 46.050781 C 37.890625 45.722656 36.984375 45.242188 36.019531 44.988281 C 33.980469 44.453125 31.984375 44.710938 30.164062 45.792969 C 28.179688 46.96875 28.164062 48.933594 30.0625 50.246094 C 32 51.582031 35.984375 51.632812 38.007812 50.347656 C 39.660156 49.296875 39.90625 48.425781 39.089844 46.425781 C 39.230469 46.335938 39.375 46.289062 39.570312 46.238281 Z M 39.570312 46.238281 "/>
<path style=" stroke:none;fill-rule:nonzero;fill:rgb(100%,34.117647%,50.980392%);fill-opacity:1;" d="M 23.78125 9.820312 C 24.082031 9.433594 24.40625 9.113281 24.691406 8.757812 C 26.015625 7.101562 27.75 6.398438 29.8125 6.710938 C 32.089844 7.054688 33.566406 8.429688 34.277344 10.613281 C 34.371094 10.902344 34.328125 11.238281 34.347656 11.613281 C 34.105469 11.773438 33.867188 11.875 33.578125 11.980469 C 33.453125 10.492188 32.769531 9.316406 31.574219 8.457031 C 29.3125 6.835938 26.320312 7.609375 24.945312 10.191406 C 24.808594 10.445312 24.648438 10.6875 24.476562 10.980469 C 24.230469 10.636719 24.007812 10.253906 23.78125 9.820312 Z M 23.78125 9.820312 "/>
<path style=" stroke:none;fill-rule:nonzero;fill:rgb(100%,40.784314%,60.784314%);fill-opacity:1;" d="M 27.007812 14.609375 C 26.429688 14.699219 26.179688 14.296875 25.972656 13.898438 C 25.273438 12.53125 25.289062 11.269531 26.203125 10.027344 C 27.128906 8.769531 28.613281 8.320312 30.097656 8.777344 C 31.382812 9.167969 32.449219 10.53125 32.527344 11.898438 C 32.535156 12.027344 32.492188 12.164062 32.464844 12.351562 C 32.277344 12.480469 32.089844 12.554688 31.820312 12.59375 C 31.507812 11.863281 31.386719 11.105469 31.015625 10.5 C 30.402344 9.496094 28.976562 9.253906 27.816406 9.804688 C 26.800781 10.289062 26.167969 11.535156 26.496094 12.613281 C 26.679688 13.222656 27.035156 13.777344 27.3125 14.355469 C 27.21875 14.429688 27.125 14.5 27.007812 14.609375 Z M 27.007812 14.609375 "/>
<path style=" stroke:none;fill-rule:nonzero;fill:rgb(100%,43.529412%,65.490196%);fill-opacity:1;" d="M 27.363281 14.355469 C 27.035156 13.777344 26.679688 13.222656 26.496094 12.613281 C 26.167969 11.535156 26.800781 10.289062 27.816406 9.804688 C 28.976562 9.253906 30.402344 9.496094 31.015625 10.5 C 31.386719 11.105469 31.507812 11.863281 31.777344 12.597656 C 31.429688 12.796875 31.042969 12.953125 30.609375 13.066406 C 30.582031 12.839844 30.59375 12.660156 30.625 12.488281 C 30.785156 11.664062 30.339844 10.882812 29.527344 10.570312 C 28.832031 10.304688 27.964844 10.644531 27.582031 11.335938 C 27.199219 12.015625 27.382812 12.847656 27.992188 13.382812 C 28.160156 13.53125 28.261719 13.757812 28.394531 13.949219 C 28.066406 14.082031 27.738281 14.21875 27.363281 14.355469 Z M 27.363281 14.355469 "/>
<path style=" stroke:none;fill-rule:nonzero;fill:rgb(100%,47.45098%,70.980392%);fill-opacity:1;" d="M 28.445312 13.945312 C 28.261719 13.757812 28.160156 13.53125 27.992188 13.382812 C 27.382812 12.847656 27.199219 12.015625 27.582031 11.335938 C 27.964844 10.644531 28.832031 10.304688 29.527344 10.570312 C 30.339844 10.882812 30.785156 11.664062 30.625 12.488281 C 30.59375 12.660156 30.582031 12.839844 30.5625 13.074219 C 29.875 13.398438 29.183594 13.671875 28.445312 13.945312 Z M 28.445312 13.945312 "/>
<path style=" stroke:none;fill-rule:nonzero;fill:rgb(98.823529%,6.666667%,9.803922%);fill-opacity:1;" d="M 41.734375 18.203125 C 41.464844 19.476562 40.867188 20.558594 39.6875 21.289062 C 39.375 20.613281 39.109375 19.9375 38.839844 19.21875 C 39.785156 18.847656 40.734375 18.523438 41.734375 18.203125 Z M 41.734375 18.203125 "/>
<path style=" stroke:none;fill-rule:nonzero;fill:rgb(99.607843%,12.941176%,19.215686%);fill-opacity:1;" d="M 19.609375 19.933594 C 20 19.691406 20.390625 19.449219 20.867188 19.234375 C 21.644531 19.945312 22.253906 20.734375 23.25 21.015625 C 22.945312 21.324219 22.636719 21.636719 22.234375 21.960938 C 21.839844 21.851562 21.476562 21.800781 21.246094 21.59375 C 20.667969 21.078125 20.152344 20.492188 19.609375 19.933594 Z M 19.609375 19.933594 "/>
<path style=" stroke:none;fill-rule:nonzero;fill:rgb(99.607843%,8.627451%,12.54902%);fill-opacity:1;" d="M 19.566406 19.945312 C 20.152344 20.492188 20.667969 21.078125 21.246094 21.59375 C 21.476562 21.800781 21.839844 21.851562 22.199219 21.980469 C 21.949219 22.292969 21.640625 22.605469 21.257812 22.894531 C 20.503906 22.296875 19.824219 21.71875 19.144531 21.140625 C 18.980469 21.003906 18.808594 20.871094 18.644531 20.738281 C 18.933594 20.476562 19.226562 20.214844 19.566406 19.945312 Z M 19.566406 19.945312 "/>
<path style=" stroke:none;fill-rule:nonzero;fill:rgb(99.607843%,4.705882%,7.45098%);fill-opacity:1;" d="M 18.601562 20.757812 C 18.808594 20.871094 18.980469 21.003906 19.144531 21.140625 C 19.824219 21.71875 20.503906 22.296875 21.214844 22.914062 C 21.035156 23.167969 20.824219 23.386719 20.578125 23.621094 C 19.886719 23.152344 19.21875 22.683594 18.582031 22.175781 C 18.359375 22 18.210938 21.730469 18.007812 21.464844 C 18.179688 21.207031 18.371094 20.992188 18.601562 20.757812 Z M 18.601562 20.757812 "/>
<path style=" stroke:none;fill-rule:nonzero;fill:rgb(99.215686%,34.117647%,50.588235%);fill-opacity:1;" d="M 24.742188 14.296875 C 25.046875 14.527344 25.316406 14.859375 25.648438 15.097656 C 26.234375 15.519531 26.859375 15.882812 27.519531 16.273438 C 27.863281 16.710938 27.542969 16.941406 27.167969 17.199219 C 26.691406 17.042969 26.304688 16.878906 25.925781 16.691406 C 25.574219 16.519531 25.234375 16.320312 24.886719 16.136719 C 24.835938 15.542969 24.785156 14.949219 24.742188 14.296875 Z M 24.742188 14.296875 "/>
<path style=" stroke:none;fill-rule:nonzero;fill:rgb(100%,30.980392%,45.882353%);fill-opacity:1;" d="M 24.878906 16.195312 C 25.234375 16.320312 25.574219 16.519531 25.925781 16.691406 C 26.304688 16.878906 26.691406 17.042969 27.125 17.21875 C 26.777344 17.621094 26.378906 18.019531 25.886719 18.433594 C 25.523438 18.339844 25.257812 18.230469 24.996094 18.125 C 24.953125 17.503906 24.914062 16.878906 24.878906 16.195312 Z M 24.878906 16.195312 "/>
<path style=" stroke:none;fill-rule:nonzero;fill:rgb(99.215686%,16.470588%,25.098039%);fill-opacity:1;" d="M 23.289062 21 C 22.253906 20.734375 21.644531 19.945312 20.914062 19.226562 C 21.230469 19.03125 21.585938 18.875 22 18.761719 C 22.640625 19.363281 23.222656 19.921875 23.804688 20.480469 C 23.644531 20.648438 23.488281 20.816406 23.289062 21 Z M 23.289062 21 "/>
<path style=" stroke:none;fill-rule:nonzero;fill:rgb(99.607843%,20%,29.411765%);fill-opacity:1;" d="M 23.847656 20.464844 C 23.222656 19.921875 22.640625 19.363281 22.050781 18.757812 C 22.40625 18.609375 22.769531 18.507812 23.210938 18.445312 C 23.773438 18.851562 24.257812 19.214844 24.746094 19.574219 C 24.460938 19.867188 24.175781 20.15625 23.847656 20.464844 Z M 23.847656 20.464844 "/>
<path style=" stroke:none;fill-rule:nonzero;fill:rgb(98.823529%,23.921569%,35.686275%);fill-opacity:1;" d="M 24.78125 19.558594 C 24.257812 19.214844 23.773438 18.851562 23.265625 18.445312 C 23.789062 18.316406 24.335938 18.230469 24.9375 18.132812 C 25.257812 18.230469 25.523438 18.339844 25.847656 18.449219 C 25.542969 18.816406 25.179688 19.179688 24.78125 19.558594 Z M 24.78125 19.558594 "/>
<path style=" stroke:none;fill-rule:nonzero;fill:rgb(27.058824%,23.921569%,25.490196%);fill-opacity:1;" d="M 28.917969 25.65625 C 27.925781 26.65625 26.921875 27.632812 25.898438 28.582031 C 25.523438 28.933594 25.09375 29.226562 24.640625 29.546875 C 25.128906 28.992188 25.652344 28.425781 26.203125 27.878906 C 26.917969 27.167969 27.640625 26.464844 28.382812 25.78125 C 28.503906 25.667969 28.726562 25.667969 28.917969 25.65625 Z M 28.917969 25.65625 "/>
<path style=" stroke:none;fill-rule:nonzero;fill:rgb(27.058824%,23.921569%,25.490196%);fill-opacity:1;" d="M 24.5625 29.53125 C 24.5 29.636719 24.394531 29.730469 24.246094 29.835938 C 24.308594 29.742188 24.414062 29.632812 24.5625 29.53125 Z M 24.5625 29.53125 "/>
<path style=" stroke:none;fill-rule:nonzero;fill:rgb(4.313725%,4.705882%,96.862745%);fill-opacity:1;" d="M 112.484375 37.527344 C 112.410156 37.679688 112.3125 37.859375 112.214844 37.863281 C 111.320312 37.882812 110.425781 37.875 109.414062 37.875 C 109.949219 36.515625 110.449219 35.238281 111.015625 33.792969 C 111.539062 35.121094 112.003906 36.296875 112.484375 37.527344 Z M 112.484375 37.527344 "/>
<path style=" stroke:none;fill-rule:nonzero;fill:rgb(4.313725%,4.705882%,96.862745%);fill-opacity:1;" d="M 79.261719 37.875 C 78.929688 37.875 78.660156 37.875 78.273438 37.875 C 78.808594 36.511719 79.316406 35.222656 79.882812 33.792969 C 80.4375 35.207031 80.9375 36.492188 81.480469 37.875 C 80.699219 37.875 80.011719 37.875 79.261719 37.875 Z M 79.261719 37.875 "/>
<path style=" stroke:none;fill-rule:nonzero;fill:rgb(7.058824%,2.745098%,92.156863%);fill-opacity:1;" d="M 112.949219 18.46875 C 113.160156 17.953125 113.347656 17.484375 113.597656 16.871094 C 114.152344 18.289062 114.648438 19.558594 115.175781 20.898438 C 114.109375 20.898438 113.097656 20.898438 112 20.898438 C 112.316406 20.089844 112.621094 19.304688 112.949219 18.46875 Z M 112.949219 18.46875 "/>
<path style=" stroke:none;fill-rule:nonzero;fill:rgb(7.058824%,2.745098%,92.156863%);fill-opacity:1;" d="M 82.28125 20.960938 C 81.375 20.960938 80.527344 20.960938 79.578125 20.960938 C 80.125 19.578125 80.632812 18.292969 81.199219 16.855469 C 81.753906 18.277344 82.261719 19.570312 82.796875 20.929688 C 82.589844 20.945312 82.464844 20.953125 82.28125 20.960938 Z M 82.28125 20.960938 "/>
<path style=" stroke:none;fill-rule:nonzero;fill:rgb(3.529412%,4.313725%,96.862745%);fill-opacity:1;" d="M 68.253906 35.769531 C 67.136719 36.613281 65.902344 36.242188 64.652344 36.324219 C 64.652344 35.253906 64.652344 34.246094 64.652344 33.242188 C 64.652344 33.023438 64.652344 32.804688 64.652344 32.558594 C 65.519531 32.558594 66.324219 32.507812 67.121094 32.570312 C 67.820312 32.628906 68.425781 32.957031 68.683594 33.671875 C 68.957031 34.425781 68.871094 35.132812 68.253906 35.769531 Z M 68.253906 35.769531 "/>
<path style=" stroke:none;fill-rule:nonzero;fill:rgb(90.588235%,92.54902%,92.941176%);fill-opacity:1;" d="M 37.558594 49.875 C 35.25 51.179688 32.964844 51.152344 30.71875 49.894531 C 29.152344 49.015625 29.117188 47.167969 30.644531 46.242188 C 32.867188 44.890625 35.1875 44.882812 37.445312 46.121094 C 39.148438 47.054688 39.171875 48.757812 37.558594 49.875 M 31.4375 46.773438 C 30.492188 47.59375 30.445312 48.511719 31.320312 49.226562 C 32.777344 50.40625 35.484375 50.40625 36.9375 49.246094 C 37.734375 48.613281 37.785156 47.746094 37.089844 47.023438 C 35.859375 45.746094 33.132812 45.589844 31.4375 46.773438 Z M 31.4375 46.773438 "/>
<path style=" stroke:none;fill-rule:nonzero;fill:rgb(93.72549%,94.901961%,95.294118%);fill-opacity:1;" d="M 31.472656 46.742188 C 33.132812 45.589844 35.859375 45.746094 37.089844 47.023438 C 37.785156 47.746094 37.734375 48.613281 36.9375 49.246094 C 35.484375 50.40625 32.777344 50.40625 31.320312 49.226562 C 30.445312 48.511719 30.492188 47.59375 31.472656 46.742188 M 35.710938 48.753906 C 36.222656 48.226562 36.25 47.78125 35.804688 47.367188 C 35.023438 46.640625 33.289062 46.636719 32.492188 47.355469 C 32.003906 47.800781 32.058594 48.496094 32.628906 48.828125 C 33.625 49.40625 34.628906 49.394531 35.710938 48.753906 Z M 35.710938 48.753906 "/>
<path style=" stroke:none;fill-rule:nonzero;fill:rgb(97.254902%,97.647059%,97.647059%);fill-opacity:1;" d="M 35.667969 48.785156 C 34.628906 49.394531 33.625 49.40625 32.628906 48.828125 C 32.058594 48.496094 32.003906 47.800781 32.492188 47.355469 C 33.289062 46.636719 35.023438 46.640625 35.804688 47.367188 C 36.25 47.78125 36.222656 48.226562 35.667969 48.785156 Z M 35.667969 48.785156 "/>
</g>
</svg>
