<svg version="1.1" id="Layer_1" xmlns="http://www.w3.org/2000/svg" xmlns:xlink="http://www.w3.org/1999/xlink" x="0px" y="0px"
	 width="100%" viewBox="0 0 894 432" enable-background="new 0 0 894 432" xml:space="preserve">
<path fill="#FFFEFE" opacity="1.000000" stroke="none" 
	d="
M596.000000,433.000000 
	C397.333374,433.000000 199.166733,433.000000 1.000080,433.000000 
	C1.000053,289.000061 1.000053,145.000122 1.000027,1.000138 
	C298.999878,1.000092 596.999756,1.000092 894.999756,1.000046 
	C894.999817,144.999863 894.999817,288.999725 894.999878,432.999786 
	C795.500000,433.000000 696.000000,433.000000 596.000000,433.000000 
M156.322250,227.725861 
	C155.558975,228.524292 154.795715,229.322739 153.489563,230.462357 
	C151.645172,232.905685 150.483170,231.061859 149.245285,229.778809 
	C144.154816,224.502594 139.068878,219.222015 133.982422,213.941956 
	C128.034180,207.767319 122.087128,201.591553 115.723877,194.984665 
	C119.713158,191.178818 123.314606,187.742981 127.457771,184.075745 
	C129.013123,182.468201 130.568451,180.860641 132.738251,179.006729 
	C134.316177,177.382874 135.894089,175.759033 138.115921,173.815186 
	C141.056137,170.871994 143.996338,167.928818 147.538086,164.760880 
	C148.701691,163.526047 149.865311,162.291214 151.664490,160.800827 
	C153.774536,158.654388 155.884583,156.507950 158.533096,154.119995 
	C160.848068,151.796509 163.163055,149.473038 166.069992,146.914078 
	C169.373337,143.607544 172.676682,140.300995 176.605103,136.733459 
	C178.698624,134.945084 181.067322,133.250320 178.940308,129.264542 
	C177.491241,125.519440 176.042160,121.774338 174.909180,117.454704 
	C175.601807,116.933014 176.294434,116.411324 177.706635,115.874481 
	C180.131912,114.875641 182.557190,113.876793 185.719406,112.860527 
	C190.818604,110.851379 195.917801,108.842232 201.716751,106.707535 
	C204.561203,105.534439 207.405655,104.361336 210.940704,103.131165 
	C212.626465,102.433487 214.312210,101.735817 216.708679,100.991142 
	C218.843658,100.132286 220.978622,99.273438 223.848801,98.241867 
	C226.346024,97.235794 228.843231,96.229729 231.982346,95.153435 
	C233.363358,94.613342 234.744370,94.073250 236.827347,93.332100 
	C238.553543,92.523659 240.279755,91.715218 242.714630,91.060356 
	C244.477509,90.354393 246.240387,89.648430 248.690414,88.935051 
	C250.510056,88.084045 252.329712,87.233032 254.790329,86.326111 
	C255.597824,86.077789 256.405334,85.829468 257.841827,85.446419 
	C258.228851,85.262657 258.615845,85.078888 259.612305,84.844879 
	C260.445526,84.354607 261.278717,83.864334 262.797089,83.303726 
	C264.271851,82.784821 265.746582,82.265915 267.965363,81.650040 
	C269.975128,80.790504 271.984894,79.930962 274.680084,78.984787 
	C276.139191,78.394882 277.598297,77.804985 279.786255,77.162636 
	C281.858398,76.425491 283.930542,75.688347 286.749908,74.973541 
	C288.171417,74.524681 289.592926,74.075813 291.773743,73.594910 
	C304.916412,71.599998 318.059082,69.605080 331.273560,67.599274 
	C325.402405,63.117950 319.205322,57.937363 312.560913,53.413853 
	C300.238800,45.024967 287.433960,37.453140 272.228088,32.971439 
	C269.477600,31.878807 266.727142,30.786177 263.448181,29.215216 
	C258.632751,28.159012 253.817307,27.102806 248.250473,25.734240 
	C244.165192,24.796539 240.079910,23.858837 235.268799,22.524817 
	C229.172165,21.944090 223.075531,21.363363 216.128815,20.459679 
	C204.169189,21.124266 192.102310,21.019005 180.279633,22.666437 
	C168.058884,24.369339 156.075378,27.774778 143.202362,30.580173 
	C136.139313,33.538231 129.076248,36.496292 121.285965,39.680443 
	C116.496964,42.375896 111.707962,45.071354 106.233498,47.934490 
	C101.034279,51.573784 95.835060,55.213081 90.006798,59.050659 
	C71.191963,73.348694 55.694584,90.602058 43.700775,111.074257 
	C57.399578,98.600800 72.485168,88.267403 89.742729,79.986977 
	C92.822426,78.642853 95.902130,77.298729 99.732262,75.963631 
	C102.489395,74.978874 105.246536,73.994118 108.768982,73.054161 
	C111.178963,72.365723 113.588951,71.677284 116.813164,71.051155 
	C119.881218,70.383339 122.949280,69.715523 126.813942,69.152534 
	C128.595139,68.886200 130.376343,68.619873 132.878113,68.323990 
	C133.584717,68.202789 134.291321,68.081589 135.865158,68.089043 
	C137.908127,68.025658 139.951111,67.962273 142.365631,68.222443 
	C142.611450,68.442574 142.827774,68.688652 142.904160,69.883034 
	C144.335236,90.437042 145.766296,110.991043 147.190002,131.439041 
	C139.867706,132.704056 132.865738,133.341354 126.189545,135.168762 
	C100.788994,142.121475 80.683815,155.963470 71.249733,181.550461 
	C61.397247,208.272247 71.291916,239.022171 95.794594,258.802094 
	C144.258240,297.924591 195.582489,261.293213 207.834244,223.096115 
	C208.255569,221.782547 207.649002,220.139297 207.062103,217.991913 
	C201.037872,211.828629 195.013641,205.665359 188.743546,198.938202 
	C187.448151,199.308731 185.792099,199.292648 184.914627,200.111191 
	C178.125702,206.444244 171.441513,212.892166 164.824036,219.405228 
	C162.059082,222.126541 159.534912,225.092499 156.973190,227.975296 
	C156.973190,227.975296 156.971802,227.898071 156.322250,227.725861 
M282.702515,382.988159 
	C287.148987,380.735138 291.595428,378.482086 296.657043,375.850220 
	C364.626160,340.437531 397.641907,265.564850 394.572784,207.896423 
	C394.278259,207.970581 393.859741,207.944366 393.706909,208.133209 
	C382.202087,222.348969 368.216064,233.567261 351.590393,241.035400 
	C337.654968,247.295090 323.276367,252.581345 309.014130,258.091949 
	C304.940826,259.665802 303.279633,261.038391 305.262817,265.982941 
	C312.936157,285.114319 319.983582,304.496155 327.363434,323.746582 
	C328.539398,326.814056 327.841583,328.334564 324.670563,329.260529 
	C321.328552,330.236389 318.103912,331.630127 314.858643,332.918457 
	C306.544373,336.218872 298.247162,339.562103 289.198334,342.953247 
	C286.780884,343.931061 284.363434,344.908844 281.203552,345.933105 
	C279.138824,346.637848 277.074127,347.342560 274.386169,348.253845 
	C273.251068,348.822296 272.115967,349.390747 270.281891,349.981537 
	C269.191956,350.338470 268.102051,350.695374 266.351166,351.293823 
	C265.060913,350.819885 263.387115,350.692230 262.571899,349.789398 
	C261.402832,348.494568 260.860138,346.634186 259.974152,344.316437 
	C259.630005,343.208588 259.285828,342.100708 258.726776,340.375122 
	C258.173523,339.246857 257.620270,338.118561 257.028931,336.270386 
	C256.365967,334.516174 255.703003,332.761963 254.960114,330.288055 
	C254.032730,328.129822 253.105331,325.971619 252.081924,323.068817 
	C247.903427,311.675903 243.724945,300.283020 239.546463,288.890137 
	C238.991638,288.773621 238.436813,288.657135 237.881989,288.540649 
	C236.536713,290.226440 235.297531,292.011414 233.829071,293.582062 
	C223.571609,304.553070 212.151520,314.124359 199.395218,322.089966 
	C197.052551,323.552887 194.875732,325.281372 191.905899,326.898407 
	C186.263229,329.308319 180.620544,331.718231 174.285690,334.350128 
	C156.565247,340.510895 138.549911,343.737854 119.593491,342.207672 
	C100.093147,340.633575 82.161392,334.825470 65.515366,324.911011 
	C58.432076,320.692230 51.851250,315.629761 44.934753,310.616333 
	C44.820450,310.566528 44.706146,310.516693 44.591831,310.466888 
	C44.714233,310.655914 44.836636,310.844971 45.032188,311.732544 
	C52.401440,321.341736 59.136089,331.530365 67.271210,340.440308 
	C84.543526,359.357697 105.427124,373.570038 128.853653,383.870636 
	C146.119644,391.462402 164.037262,396.900391 183.768082,398.430023 
	C189.837326,398.915955 195.906586,399.401886 202.908844,399.975250 
	C211.938141,399.312683 220.967453,398.650085 230.849396,398.009674 
	C240.235565,395.994690 249.621735,393.979706 259.759857,391.911774 
	C267.162262,388.971191 274.564636,386.030640 282.702515,382.988159 
M268.176025,167.740463 
	C272.472046,178.851685 276.768036,189.962906 281.075226,201.814392 
	C282.009247,204.241989 282.943268,206.669601 283.999420,209.414658 
	C296.233337,204.662994 308.118561,200.432205 319.647644,195.387573 
	C324.564209,193.236313 329.222778,189.901825 333.153625,186.206284 
	C343.618591,176.367844 345.473267,163.452118 339.121979,149.622391 
	C333.225555,136.783096 322.438812,130.394180 308.182495,131.687057 
	C291.145905,133.232117 276.525848,142.105774 260.266907,147.101547 
	C261.117981,148.979691 261.658936,150.173492 262.240723,152.040558 
	C264.208588,157.030045 266.176453,162.019531 268.176025,167.740463 
M645.416504,196.424179 
	C645.416504,199.546844 645.416504,202.669510 645.416504,205.909790 
	C655.405762,205.909790 664.931702,205.909790 674.965942,205.909790 
	C674.965942,187.011642 674.965942,168.498337 674.965942,148.936890 
	C676.815552,151.195282 677.969055,152.544922 679.059265,153.943848 
	C691.852783,170.359009 704.619934,186.794754 717.457153,203.175537 
	C718.419678,204.403717 719.837219,206.100021 721.090698,206.141464 
	C729.204712,206.409714 737.331909,206.278915 745.433716,206.278915 
	C745.433716,170.668365 745.433716,135.605530 745.433716,100.469727 
	C735.733582,100.469727 726.355591,100.469727 716.354675,100.469727 
	C716.354675,118.748299 716.354675,136.718918 716.354675,155.963455 
	C714.488586,153.601044 713.481018,152.341187 712.489929,151.068451 
	C700.112549,135.173126 687.760803,119.257637 675.319397,103.412628 
	C674.279663,102.088402 672.669739,100.355881 671.273438,100.307915 
	C662.837280,100.018135 654.386169,100.163742 645.416626,100.163742 
	C645.416626,132.237289 645.416626,163.841949 645.416504,196.424179 
M498.187195,121.687462 
	C500.365112,119.016441 502.543030,116.345421 504.853760,113.511497 
	C489.034515,100.083534 471.099976,96.117271 451.342255,99.002274 
	C427.110657,102.540520 407.941681,122.153778 405.126648,146.179077 
	C402.120239,171.837906 414.771851,194.817917 437.979431,203.705017 
	C462.213318,212.985153 485.098694,209.056046 506.016296,193.922485 
	C507.511780,192.840546 508.479401,190.080505 508.513214,188.080795 
	C508.732910,175.086945 508.634613,162.087585 508.613922,149.090057 
	C508.611603,147.637741 508.442657,146.185669 508.339081,144.544830 
	C492.100983,144.544830 476.196014,144.544830 460.096313,144.544830 
	C460.096313,151.709366 460.096313,158.611053 460.096313,166.084625 
	C467.065643,166.084625 473.785492,166.084625 480.429749,166.084625 
	C481.603821,180.090744 479.411987,182.582870 465.979309,183.056122 
	C464.150604,183.120544 462.307709,183.119339 460.485352,182.973785 
	C444.114380,181.666321 433.171082,167.292496 435.103455,149.682404 
	C436.868774,133.594696 450.234283,122.855560 465.985779,124.536392 
	C474.249878,125.418243 481.128540,129.098129 487.699799,134.259979 
	C491.144470,130.142456 494.446777,126.195129 498.187195,121.687462 
M542.709839,144.150192 
	C534.038391,164.634537 525.366943,185.118866 516.412170,206.272598 
	C521.972717,206.272598 526.760803,206.312302 531.547913,206.261795 
	C536.697815,206.207474 543.038574,207.862991 546.658936,205.458633 
	C550.232788,203.085129 551.054626,196.568054 553.084106,191.868927 
	C553.282104,191.410385 553.355591,190.779221 553.703613,190.524765 
	C555.227722,189.410461 556.791016,187.584244 558.413879,187.503693 
	C565.229553,187.165421 572.071838,187.331818 578.904053,187.370575 
	C584.396057,187.401718 591.147095,185.594025 595.023193,188.135254 
	C598.857178,190.648865 599.788818,197.589890 601.992004,202.589523 
	C602.260193,203.198105 602.376770,203.953537 602.814148,204.389603 
	C603.547791,205.121002 604.476196,206.173080 605.334534,206.184387 
	C614.950562,206.311172 624.568848,206.264481 634.452148,206.264481 
	C634.242249,205.136368 634.235474,204.460098 633.992188,203.883591 
	C619.698059,170.011078 605.416077,136.133270 590.954529,102.332268 
	C590.386536,101.004639 588.116699,99.676834 586.587524,99.613564 
	C579.600403,99.324448 572.587830,99.668449 565.598511,99.406685 
	C562.352661,99.285118 560.994812,100.552643 559.822754,103.416733 
	C554.341553,116.810646 548.615417,130.104324 542.709839,144.150192 
M824.448975,187.361618 
	C835.296448,187.361450 835.297058,187.361206 839.448608,197.509628 
	C840.329895,199.663925 840.995300,201.944885 842.168274,203.925888 
	C842.789795,204.975433 844.276184,206.148499 845.392639,206.169357 
	C854.856628,206.346252 864.325317,206.270447 873.884705,206.270447 
	C873.841003,205.394455 873.950684,204.853928 873.773682,204.434402 
	C859.358337,170.277695 844.947815,136.118790 830.373108,102.030067 
	C829.856934,100.822662 827.721497,99.651726 826.298767,99.599213 
	C819.479919,99.347488 812.638489,99.684998 805.821777,99.405640 
	C802.320251,99.262146 800.562866,100.350647 799.176270,103.669815 
	C785.589478,136.191757 771.817566,168.636322 758.114563,201.109756 
	C757.485840,202.599533 757.012268,204.154800 756.254883,206.270660 
	C766.076965,206.270660 775.356934,206.370117 784.629028,206.144196 
	C785.782043,206.116104 787.360962,204.583725 787.937439,203.366989 
	C789.784729,199.467300 791.544678,195.475479 792.778503,191.351700 
	C793.802002,187.931000 795.693176,187.193954 798.983032,187.286102 
	C807.137207,187.514496 815.302002,187.361496 824.448975,187.361618 
M723.729248,324.211517 
	C726.741699,321.442017 731.910400,320.684937 731.889648,315.102661 
	C731.835327,300.447540 731.812561,285.791656 731.915588,271.137085 
	C731.939453,267.738220 730.670227,266.287964 727.244385,266.303162 
	C712.256287,266.369629 697.267273,266.394867 682.279663,266.284821 
	C678.538696,266.257355 677.274719,267.867889 677.368103,271.417847 
	C677.516846,277.076233 677.562683,282.747009 677.355957,288.401733 
	C677.209656,292.404694 678.942688,293.687958 682.737793,293.533051 
	C687.812317,293.325867 692.901672,293.481750 697.898071,293.481750 
	C698.878723,302.850159 698.397705,303.623505 689.945007,304.751617 
	C686.836060,305.166565 683.604431,305.208160 680.482910,304.889618 
	C666.681702,303.481354 657.187256,291.348602 658.174622,276.628113 
	C659.169922,261.789978 670.031982,251.515289 684.205872,252.003860 
	C691.996643,252.272385 698.816650,255.144714 704.706665,260.090576 
	C707.559265,262.485840 709.467651,262.151245 711.709351,259.323547 
	C716.259399,253.584137 720.885742,247.888474 725.785095,242.449020 
	C728.732666,239.176636 728.471863,237.082916 725.015198,234.378448 
	C709.243103,222.038467 691.386047,218.307968 671.886841,220.990753 
	C646.105774,224.537796 625.302979,245.806030 622.896240,271.023132 
	C620.117920,300.133759 634.739624,323.999664 661.303162,332.571533 
	C682.998901,339.572601 703.680115,336.293884 723.729248,324.211517 
M766.915649,333.977356 
	C768.369995,332.664734 770.386780,331.622559 771.172546,329.988464 
	C773.469299,325.212311 775.275085,320.200043 777.385071,315.005127 
	C789.036865,315.005127 800.678101,314.926483 812.314392,315.129517 
	C813.450073,315.149353 815.018250,316.686340 815.590393,317.895416 
	C817.506714,321.945099 818.780457,326.316681 820.889893,330.248688 
	C821.775757,331.900024 824.100342,333.749084 825.834534,333.814178 
	C835.145325,334.163696 844.476562,334.031830 853.799866,333.956848 
	C858.194824,333.921478 859.166138,332.481628 857.437134,328.374329 
	C842.930725,293.913452 828.409607,259.458405 813.684509,225.090942 
	C812.995544,223.483078 810.373413,221.802032 808.582092,221.722626 
	C800.439636,221.361618 792.270203,221.667587 784.114929,221.506363 
	C781.121948,221.447205 779.717896,222.670700 778.592041,225.348450 
	C764.165649,259.662933 749.618530,293.926666 735.142517,328.220306 
	C733.294922,332.597260 734.216675,333.926117 739.051025,333.960632 
	C748.041504,334.024841 757.032776,333.979492 766.915649,333.977356 
M504.850555,328.385437 
	C502.973022,332.251953 504.230927,334.038330 508.478455,333.989746 
	C513.140442,333.936401 517.804443,334.036438 522.465942,333.964142 
	C527.931519,333.879425 534.627502,335.555481 538.511414,333.002106 
	C542.355408,330.475006 543.553101,323.705475 545.533569,318.648773 
	C546.591125,315.948303 547.848267,314.781860 550.905823,314.923920 
	C556.887756,315.201874 562.891785,314.978760 568.886353,315.013672 
	C573.870178,315.042725 580.105164,313.346130 583.494934,315.705475 
	C587.083618,318.203369 587.965942,324.589844 590.029053,329.278442 
	C590.095947,329.430511 590.161682,329.585327 590.205078,329.745087 
	C591.070190,332.927460 592.985596,334.148682 596.420105,334.057281 
	C605.239563,333.822632 614.069580,334.012543 622.895020,333.966156 
	C628.254089,333.937988 629.046631,332.681793 626.899597,327.592743 
	C612.557495,293.597595 598.160522,259.625488 583.883545,225.602982 
	C582.590027,222.520279 580.819214,221.382385 577.479797,221.489761 
	C570.160400,221.725128 562.818054,221.792953 555.505066,221.473389 
	C551.374634,221.292908 549.378784,222.676056 547.753601,226.572296 
	C533.677673,260.318512 519.352905,293.960938 504.850555,328.385437 
M420.964752,311.499817 
	C420.964783,317.164001 421.153168,322.836578 420.901825,328.489594 
	C420.720093,332.577911 422.128723,334.186798 426.336151,334.057220 
	C434.158600,333.816345 442.005157,333.733490 449.819550,334.081757 
	C454.714691,334.299927 456.287231,332.578369 456.086731,327.761993 
	C455.756744,319.835968 455.997223,311.886200 455.997223,304.065704 
	C463.424072,303.707947 470.284943,303.815521 477.024933,302.965057 
	C492.891144,300.963043 506.310913,294.655975 512.956726,278.976715 
	C524.153259,252.561234 508.093964,225.646332 478.961243,223.154312 
	C462.083130,221.710556 445.019348,222.409973 428.038391,222.208694 
	C420.973907,222.124954 420.966461,222.200546 420.965759,229.035690 
	C420.963013,256.190430 420.964691,283.345184 420.964752,311.499817 
z"/>
<path fill="#FF0609" opacity="1.000000" stroke="none" 
	d="
M645.416565,195.935394 
	C645.416626,163.841949 645.416626,132.237289 645.416626,100.163742 
	C654.386169,100.163742 662.837280,100.018135 671.273438,100.307915 
	C672.669739,100.355881 674.279663,102.088402 675.319397,103.412628 
	C687.760803,119.257637 700.112549,135.173126 712.489929,151.068451 
	C713.481018,152.341187 714.488586,153.601044 716.354675,155.963455 
	C716.354675,136.718918 716.354675,118.748299 716.354675,100.469727 
	C726.355591,100.469727 735.733582,100.469727 745.433716,100.469727 
	C745.433716,135.605530 745.433716,170.668365 745.433716,206.278915 
	C737.331909,206.278915 729.204712,206.409714 721.090698,206.141464 
	C719.837219,206.100021 718.419678,204.403717 717.457153,203.175537 
	C704.619934,186.794754 691.852783,170.359009 679.059265,153.943848 
	C677.969055,152.544922 676.815552,151.195282 674.965942,148.936890 
	C674.965942,168.498337 674.965942,187.011642 674.965942,205.909790 
	C664.931702,205.909790 655.405762,205.909790 645.416504,205.909790 
	C645.416504,202.669510 645.416504,199.546844 645.416565,195.935394 
z"/>
<path fill="#FF0508" opacity="1.000000" stroke="none" 
	d="
M497.968140,121.967636 
	C494.446777,126.195129 491.144470,130.142456 487.699799,134.259979 
	C481.128540,129.098129 474.249878,125.418243 465.985779,124.536392 
	C450.234283,122.855560 436.868774,133.594696 435.103455,149.682404 
	C433.171082,167.292496 444.114380,181.666321 460.485352,182.973785 
	C462.307709,183.119339 464.150604,183.120544 465.979309,183.056122 
	C479.411987,182.582870 481.603821,180.090744 480.429749,166.084625 
	C473.785492,166.084625 467.065643,166.084625 460.096313,166.084625 
	C460.096313,158.611053 460.096313,151.709366 460.096313,144.544830 
	C476.196014,144.544830 492.100983,144.544830 508.339081,144.544830 
	C508.442657,146.185669 508.611603,147.637741 508.613922,149.090057 
	C508.634613,162.087585 508.732910,175.086945 508.513214,188.080795 
	C508.479401,190.080505 507.511780,192.840546 506.016296,193.922485 
	C485.098694,209.056046 462.213318,212.985153 437.979431,203.705017 
	C414.771851,194.817917 402.120239,171.837906 405.126648,146.179077 
	C407.941681,122.153778 427.110657,102.540520 451.342255,99.002274 
	C471.099976,96.117271 489.034515,100.083534 504.853760,113.511497 
	C502.543030,116.345421 500.365112,119.016441 497.968140,121.967636 
z"/>
<path fill="#BDCBCC" opacity="1.000000" stroke="none" 
	d="
M289.943115,342.888245 
	C298.247162,339.562103 306.544373,336.218872 314.858643,332.918457 
	C318.103912,331.630127 321.328552,330.236389 324.670563,329.260529 
	C327.841583,328.334564 328.539398,326.814056 327.363434,323.746582 
	C319.983582,304.496155 312.936157,285.114319 305.262817,265.982941 
	C303.279633,261.038391 304.940826,259.665802 309.014130,258.091949 
	C323.276367,252.581345 337.654968,247.295090 351.590393,241.035400 
	C368.216064,233.567261 382.202087,222.348969 393.706909,208.133209 
	C393.859741,207.944366 394.278259,207.970581 394.573059,207.897461 
	C397.641907,265.564850 364.626160,340.437531 296.336792,375.604889 
	C296.043823,374.697174 295.897125,373.967224 296.124207,373.382416 
	C300.002594,363.394562 297.603271,354.625122 291.153137,346.530457 
	C290.404785,345.591339 290.330109,344.115326 289.943115,342.888245 
z"/>
<path fill="#FF0406" opacity="1.000000" stroke="none" 
	d="
M542.843262,143.792007 
	C548.615417,130.104324 554.341553,116.810646 559.822754,103.416733 
	C560.994812,100.552643 562.352661,99.285118 565.598511,99.406685 
	C572.587830,99.668449 579.600403,99.324448 586.587524,99.613564 
	C588.116699,99.676834 590.386536,101.004639 590.954529,102.332268 
	C605.416077,136.133270 619.698059,170.011078 633.992188,203.883591 
	C634.235474,204.460098 634.242249,205.136368 634.452148,206.264481 
	C624.568848,206.264481 614.950562,206.311172 605.334534,206.184387 
	C604.476196,206.173080 603.547791,205.121002 602.814148,204.389603 
	C602.376770,203.953537 602.260193,203.198105 601.992004,202.589523 
	C599.788818,197.589890 598.857178,190.648865 595.023193,188.135254 
	C591.147095,185.594025 584.396057,187.401718 578.904053,187.370575 
	C572.071838,187.331818 565.229553,187.165421 558.413879,187.503693 
	C556.791016,187.584244 555.227722,189.410461 553.703613,190.524765 
	C553.355591,190.779221 553.282104,191.410385 553.084106,191.868927 
	C551.054626,196.568054 550.232788,203.085129 546.658936,205.458633 
	C543.038574,207.862991 536.697815,206.207474 531.547913,206.261795 
	C526.760803,206.312302 521.972717,206.272598 516.412170,206.272598 
	C525.366943,185.118866 534.038391,164.634537 542.843262,143.792007 
M568.511536,151.886597 
	C566.937195,155.969757 565.362915,160.052933 563.719177,164.316162 
	C571.876160,164.316162 579.281128,164.316162 587.270264,164.316162 
	C583.342346,154.332703 579.594910,144.807816 575.478455,134.344955 
	C572.971069,140.684830 570.895325,145.933151 568.511536,151.886597 
z"/>
<path fill="#FF0407" opacity="1.000000" stroke="none" 
	d="
M823.955750,187.361664 
	C815.302002,187.361496 807.137207,187.514496 798.983032,187.286102 
	C795.693176,187.193954 793.802002,187.931000 792.778503,191.351700 
	C791.544678,195.475479 789.784729,199.467300 787.937439,203.366989 
	C787.360962,204.583725 785.782043,206.116104 784.629028,206.144196 
	C775.356934,206.370117 766.076965,206.270660 756.254883,206.270660 
	C757.012268,204.154800 757.485840,202.599533 758.114563,201.109756 
	C771.817566,168.636322 785.589478,136.191757 799.176270,103.669815 
	C800.562866,100.350647 802.320251,99.262146 805.821777,99.405640 
	C812.638489,99.684998 819.479919,99.347488 826.298767,99.599213 
	C827.721497,99.651726 829.856934,100.822662 830.373108,102.030067 
	C844.947815,136.118790 859.358337,170.277695 873.773682,204.434402 
	C873.950684,204.853928 873.841003,205.394455 873.884705,206.270447 
	C864.325317,206.270447 854.856628,206.346252 845.392639,206.169357 
	C844.276184,206.148499 842.789795,204.975433 842.168274,203.925888 
	C840.995300,201.944885 840.329895,199.663925 839.448608,197.509628 
	C835.297058,187.361206 835.296448,187.361450 823.955750,187.361664 
M805.647644,157.995819 
	C804.893555,159.960526 804.139404,161.925247 803.223572,164.311188 
	C811.197510,164.311188 818.681458,164.311188 826.798523,164.311188 
	C822.887756,154.364944 819.154785,144.870819 815.012634,134.335983 
	C811.640991,142.832321 808.774780,150.055161 805.647644,157.995819 
z"/>
<path fill="#30353A" opacity="1.000000" stroke="none" 
	d="
M207.521530,218.649704 
	C207.649002,220.139297 208.255569,221.782547 207.834244,223.096115 
	C195.582489,261.293213 144.258240,297.924591 95.794594,258.802094 
	C71.291916,239.022171 61.397247,208.272247 71.249733,181.550461 
	C80.683815,155.963470 100.788994,142.121475 126.189545,135.168762 
	C132.865738,133.341354 139.867706,132.704056 147.190002,131.439041 
	C145.766296,110.991043 144.335236,90.437042 143.169128,69.507622 
	C143.434082,69.132210 143.873993,69.240753 143.930023,69.579338 
	C145.269623,72.109077 146.553177,74.300232 147.884521,76.809921 
	C148.895950,78.779526 149.859604,80.430588 150.869507,82.435196 
	C152.559967,85.621826 154.204208,88.454910 155.896332,91.705009 
	C156.653854,100.080261 157.363525,108.038506 158.011551,116.439926 
	C158.300613,120.588951 158.651321,124.294777 158.942078,128.455444 
	C159.206589,133.832855 159.531052,138.755432 159.436554,143.754898 
	C155.306519,144.376190 151.595474,144.920578 147.474060,145.496674 
	C144.042740,146.358734 141.021774,147.189117 137.633545,148.023254 
	C134.641708,149.252304 132.017136,150.477585 129.048584,151.715912 
	C125.806671,153.491364 122.908707,155.253769 119.685562,157.097290 
	C117.199226,159.102203 115.038063,161.026016 112.580101,163.078003 
	C110.857101,164.808838 109.430901,166.411484 107.710785,168.175079 
	C104.876457,172.611038 101.734077,176.643082 99.894348,181.200928 
	C88.860435,208.537079 103.736076,241.534119 132.416245,253.922104 
	C161.763962,266.598419 196.547272,250.262802 207.521530,218.649704 
z"/>
<path fill="#FD0306" opacity="1.000000" stroke="none" 
	d="
M207.291809,218.320801 
	C196.547272,250.262802 161.763962,266.598419 132.416245,253.922104 
	C103.736076,241.534119 88.860435,208.537079 99.894348,181.200928 
	C101.734077,176.643082 104.876457,172.611038 107.855339,168.473389 
	C110.475510,170.854019 112.476120,173.318085 114.880226,175.290268 
	C118.752182,178.466537 122.890343,181.318283 126.916046,184.307129 
	C123.314606,187.742981 119.713158,191.178818 115.723877,194.984665 
	C122.087128,201.591553 128.034180,207.767319 133.982422,213.941956 
	C139.068878,219.222015 144.154816,224.502594 149.245285,229.778809 
	C150.483170,231.061859 151.645172,232.905685 154.075806,230.210297 
	C155.431976,229.271530 156.201889,228.584808 156.971802,227.898071 
	C156.971802,227.898071 156.973190,227.975296 157.286987,227.946686 
	C158.299942,227.471359 159.084518,227.117386 159.685532,226.564041 
	C169.467224,217.558319 179.225708,208.527344 188.989410,199.502075 
	C195.013641,205.665359 201.037872,211.828629 207.291809,218.320801 
z"/>
<path fill="#BECCCD" opacity="1.000000" stroke="none" 
	d="
M183.023453,398.104492 
	C164.037262,396.900391 146.119644,391.462402 128.853653,383.870636 
	C105.427124,373.570038 84.543526,359.357697 67.271210,340.440308 
	C59.136089,331.530365 52.401440,321.341736 45.017490,311.363586 
	C45.002792,310.994598 45.042068,310.950714 45.042076,310.950684 
	C51.851250,315.629761 58.432076,320.692230 65.515366,324.911011 
	C82.161392,334.825470 100.093147,340.633575 119.593491,342.207672 
	C138.549911,343.737854 156.565247,340.510895 174.632751,334.594177 
	C174.169632,335.973206 173.577850,337.396332 172.516937,338.200653 
	C152.217728,353.591400 153.137817,376.492676 172.631973,390.187256 
	C176.192596,392.688568 179.564453,395.458527 183.023453,398.104492 
z"/>
<path fill="#31363B" opacity="1.000000" stroke="none" 
	d="
M262.199921,151.367294 
	C261.658936,150.173492 261.117981,148.979691 260.266907,147.101547 
	C276.525848,142.105774 291.145905,133.232117 308.182495,131.687057 
	C322.438812,130.394180 333.225555,136.783096 339.121979,149.622391 
	C345.473267,163.452118 343.618591,176.367844 333.153625,186.206284 
	C329.222778,189.901825 324.564209,193.236313 319.647644,195.387573 
	C308.118561,200.432205 296.233337,204.662994 283.999420,209.414658 
	C282.943268,206.669601 282.009247,204.241989 281.424561,201.354858 
	C287.485504,198.604843 293.319031,196.573395 298.877502,193.957520 
	C305.661774,190.764786 311.248016,186.048660 314.214203,178.902588 
	C318.287323,169.089615 315.747650,160.141434 309.649292,152.202515 
	C303.128448,143.713684 294.028564,142.177505 283.633270,144.241196 
	C276.235291,146.600555 269.217621,148.983932 262.199921,151.367294 
z"/>
<path fill="#28292A" opacity="1.000000" stroke="none" 
	d="
M723.430237,324.418640 
	C703.680115,336.293884 682.998901,339.572601 661.303162,332.571533 
	C634.739624,323.999664 620.117920,300.133759 622.896240,271.023132 
	C625.302979,245.806030 646.105774,224.537796 671.886841,220.990753 
	C691.386047,218.307968 709.243103,222.038467 725.015198,234.378448 
	C728.471863,237.082916 728.732666,239.176636 725.785095,242.449020 
	C720.885742,247.888474 716.259399,253.584137 711.709351,259.323547 
	C709.467651,262.151245 707.559265,262.485840 704.706665,260.090576 
	C698.816650,255.144714 691.996643,252.272385 684.205872,252.003860 
	C670.031982,251.515289 659.169922,261.789978 658.174622,276.628113 
	C657.187256,291.348602 666.681702,303.481354 680.482910,304.889618 
	C683.604431,305.208160 686.836060,305.166565 689.945007,304.751617 
	C698.397705,303.623505 698.878723,302.850159 697.898071,293.481750 
	C692.901672,293.481750 687.812317,293.325867 682.737793,293.533051 
	C678.942688,293.687958 677.209656,292.404694 677.355957,288.401733 
	C677.562683,282.747009 677.516846,277.076233 677.368103,271.417847 
	C677.274719,267.867889 678.538696,266.257355 682.279663,266.284821 
	C697.267273,266.394867 712.256287,266.369629 727.244385,266.303162 
	C730.670227,266.287964 731.939453,267.738220 731.915588,271.137085 
	C731.812561,285.791656 731.835327,300.447540 731.889648,315.102661 
	C731.910400,320.684937 726.741699,321.442017 723.430237,324.418640 
M671.336670,305.290741 
	C656.446106,297.419952 650.917236,279.375702 658.734314,264.119812 
	C662.069702,257.610443 667.053467,252.839676 674.068604,250.622040 
	C687.039001,246.521805 698.131348,251.061783 708.282288,258.979889 
	C714.103638,251.978119 719.632324,245.328461 725.351196,238.449997 
	C709.351135,224.803986 691.082275,220.872910 671.015320,224.084610 
	C646.518127,228.005371 628.683228,247.179108 625.653625,272.523346 
	C622.766907,296.671692 635.551331,319.432831 658.128235,328.300262 
	C682.518616,337.880005 705.518127,333.865509 726.613525,318.672028 
	C727.996521,317.675995 728.861023,315.100006 728.898376,313.237488 
	C729.112000,302.576630 729.002258,291.909302 729.002258,281.244171 
	C729.002258,277.324738 729.002258,273.405304 729.002258,269.612793 
	C712.389465,269.612793 696.509033,269.612793 680.538940,269.612793 
	C680.538940,276.774414 680.538940,283.552094 680.538940,290.869751 
	C687.504395,290.869751 694.247742,290.869751 701.210083,290.869751 
	C701.210083,293.889008 700.898804,296.416168 701.277771,298.835175 
	C701.968994,303.246948 699.803833,305.097198 695.962219,306.284790 
	C687.866760,308.787445 679.916504,308.804535 671.336670,305.290741 
z"/>
<path fill="#FD0306" opacity="1.000000" stroke="none" 
	d="
M284.013550,144.265213 
	C294.028564,142.177505 303.128448,143.713684 309.649292,152.202515 
	C315.747650,160.141434 318.287323,169.089615 314.214203,178.902588 
	C311.248016,186.048660 305.661774,190.764786 298.877502,193.957520 
	C293.319031,196.573395 287.485504,198.604843 281.418945,200.984741 
	C276.768036,189.962906 272.472046,178.851685 268.535156,167.374832 
	C270.661804,165.779724 272.987244,164.921387 274.096375,163.253983 
	C278.059326,157.296448 284.068146,152.330948 284.013550,144.265213 
z"/>
<path fill="#28292A" opacity="1.000000" stroke="none" 
	d="
M766.469666,333.978546 
	C757.032776,333.979492 748.041504,334.024841 739.051025,333.960632 
	C734.216675,333.926117 733.294922,332.597260 735.142517,328.220306 
	C749.618530,293.926666 764.165649,259.662933 778.592041,225.348450 
	C779.717896,222.670700 781.121948,221.447205 784.114929,221.506363 
	C792.270203,221.667587 800.439636,221.361618 808.582092,221.722626 
	C810.373413,221.802032 812.995544,223.483078 813.684509,225.090942 
	C828.409607,259.458405 842.930725,293.913452 857.437134,328.374329 
	C859.166138,332.481628 858.194824,333.921478 853.799866,333.956848 
	C844.476562,334.031830 835.145325,334.163696 825.834534,333.814178 
	C824.100342,333.749084 821.775757,331.900024 820.889893,330.248688 
	C818.780457,326.316681 817.506714,321.945099 815.590393,317.895416 
	C815.018250,316.686340 813.450073,315.149353 812.314392,315.129517 
	C800.678101,314.926483 789.036865,315.005127 777.385071,315.005127 
	C775.275085,320.200043 773.469299,325.212311 771.172546,329.988464 
	C770.386780,331.622559 768.369995,332.664734 766.469666,333.978546 
M777.912842,234.452286 
	C764.351074,266.516052 750.789307,298.579834 737.101562,330.941498 
	C747.776306,330.941498 757.744263,330.941498 767.845276,330.941498 
	C769.976624,325.605042 771.890869,320.274780 774.287170,315.170868 
	C774.928162,313.805664 777.024353,312.301880 778.481506,312.271851 
	C789.966797,312.035278 801.462036,312.018982 812.946228,312.281158 
	C814.541199,312.317535 816.813660,313.893402 817.533997,315.363434 
	C820.009094,320.414886 821.933899,325.735962 823.975525,330.726929 
	C834.500000,330.726929 844.677979,330.726929 855.263672,330.726929 
	C854.437500,328.749542 853.811035,327.236389 853.174194,325.727661 
	C839.665466,293.723206 826.058167,261.759521 812.761719,229.667114 
	C810.980896,225.368896 808.783264,223.850769 804.311584,224.304214 
	C800.355713,224.705368 796.242432,224.909744 792.348022,224.278885 
	C784.428589,222.996033 779.778137,225.898880 777.912842,234.452286 
z"/>
<path fill="#28292A" opacity="1.000000" stroke="none" 
	d="
M504.976410,328.009827 
	C519.352905,293.960938 533.677673,260.318512 547.753601,226.572296 
	C549.378784,222.676056 551.374634,221.292908 555.505066,221.473389 
	C562.818054,221.792953 570.160400,221.725128 577.479797,221.489761 
	C580.819214,221.382385 582.590027,222.520279 583.883545,225.602982 
	C598.160522,259.625488 612.557495,293.597595 626.899597,327.592743 
	C629.046631,332.681793 628.254089,333.937988 622.895020,333.966156 
	C614.069580,334.012543 605.239563,333.822632 596.420105,334.057281 
	C592.985596,334.148682 591.070190,332.927460 590.205078,329.745087 
	C590.161682,329.585327 590.095947,329.430511 590.029053,329.278442 
	C587.965942,324.589844 587.083618,318.203369 583.494934,315.705475 
	C580.105164,313.346130 573.870178,315.042725 568.886353,315.013672 
	C562.891785,314.978760 556.887756,315.201874 550.905823,314.923920 
	C547.848267,314.781860 546.591125,315.948303 545.533569,318.648773 
	C543.553101,323.705475 542.355408,330.475006 538.511414,333.002106 
	C534.627502,335.555481 527.931519,333.879425 522.465942,333.964142 
	C517.804443,334.036438 513.140442,333.936401 508.478455,333.989746 
	C504.230927,334.038330 502.973022,332.251953 504.976410,328.009827 
M527.839539,281.376831 
	C520.883362,297.804932 513.927185,314.233032 506.784302,331.101929 
	C508.771606,331.101929 509.932159,331.101898 511.092712,331.101898 
	C518.922119,331.102020 526.757202,331.255157 534.575806,330.964081 
	C536.016785,330.910431 538.005737,329.359772 538.680908,327.980713 
	C540.722107,323.811646 542.028564,319.281860 544.085815,315.122284 
	C544.756836,313.765350 546.822266,312.333374 548.304993,312.272369 
	C555.455994,311.978333 562.625854,312.108795 569.788696,312.151337 
	C575.100891,312.182892 581.640198,310.451416 585.378052,312.919861 
	C589.092712,315.372864 589.990662,322.091583 592.122742,326.940216 
	C592.390625,327.549500 592.499146,328.329559 592.947754,328.738037 
	C593.922913,329.625854 595.057739,330.977936 596.148804,330.998444 
	C605.616333,331.176178 615.088623,331.100861 624.865234,331.100861 
	C624.604675,330.146484 624.506531,329.513519 624.264832,328.941101 
	C609.971680,295.088409 595.703979,261.224762 581.234131,227.447662 
	C580.620300,226.014771 578.159607,224.605209 576.494568,224.524887 
	C569.680481,224.196198 562.834290,224.570908 556.014587,224.307678 
	C552.800232,224.183609 551.340027,225.390671 550.155762,228.246658 
	C542.895264,245.755951 535.461426,263.193329 527.839539,281.376831 
z"/>
<path fill="#FF2B3E" opacity="1.000000" stroke="none" 
	d="
M143.988083,30.435448 
	C156.075378,27.774778 168.058884,24.369339 180.279633,22.666437 
	C192.102310,21.019005 204.169189,21.124266 216.585709,20.990931 
	C218.644775,22.822273 220.064362,24.514551 221.878571,25.359224 
	C234.257690,31.122849 245.184479,38.752666 253.305145,49.873672 
	C260.285065,59.432495 266.631256,69.357330 267.221344,81.747009 
	C265.746582,82.265915 264.271851,82.784821 262.397186,82.937386 
	C261.228790,80.201797 260.509583,77.815239 259.684296,75.465935 
	C248.912537,44.802494 220.859985,25.280912 188.957214,25.142572 
	C174.627502,25.080435 161.126038,29.357323 149.077560,37.382233 
	C139.276978,43.909931 131.181274,52.163116 125.325554,62.447922 
	C124.299919,64.249306 122.352684,66.580025 126.002014,68.262741 
	C126.009277,68.698860 126.013306,68.873283 126.017334,69.047714 
	C122.949280,69.715523 119.881218,70.383339 116.407150,70.613907 
	C116.501442,68.117905 116.623253,65.864906 117.563873,64.032135 
	C123.383690,52.692493 131.037796,42.852474 141.403336,35.207287 
	C142.721176,34.235294 143.148300,32.055618 143.988083,30.435448 
z"/>
<path fill="#2B2C2D" opacity="1.000000" stroke="none" 
	d="
M420.964752,310.999878 
	C420.964691,283.345184 420.963013,256.190430 420.965759,229.035690 
	C420.966461,222.200546 420.973907,222.124954 428.038391,222.208694 
	C445.019348,222.409973 462.083130,221.710556 478.961243,223.154312 
	C508.093964,225.646332 524.153259,252.561234 512.956726,278.976715 
	C506.310913,294.655975 492.891144,300.963043 477.024933,302.965057 
	C470.284943,303.815521 463.424072,303.707947 455.997223,304.065704 
	C455.997223,311.886200 455.756744,319.835968 456.086731,327.761993 
	C456.287231,332.578369 454.714691,334.299927 449.819550,334.081757 
	C442.005157,333.733490 434.158600,333.816345 426.336151,334.057220 
	C422.128723,334.186798 420.720093,332.577911 420.901825,328.489594 
	C421.153168,322.836578 420.964783,317.164001 420.964752,310.999878 
M423.880157,319.486481 
	C423.880157,323.259888 423.880157,327.033325 423.880157,330.834869 
	C433.868927,330.834869 443.279846,330.834869 453.101196,330.834869 
	C453.101196,320.836029 453.101196,311.082794 453.101196,301.328125 
	C461.946533,300.858948 470.443359,300.914764 478.801331,299.865051 
	C499.597382,297.253082 512.724854,283.321136 513.133911,264.138641 
	C513.569824,243.702240 502.374603,228.945694 481.533905,226.575928 
	C462.631500,224.426559 443.400970,225.163025 423.880157,224.614944 
	C423.880157,256.578125 423.880157,287.534882 423.880157,319.486481 
z"/>
<path fill="#C7D3D4" opacity="1.000000" stroke="none" 
	d="
M183.395767,398.267273 
	C179.564453,395.458527 176.192596,392.688568 172.631973,390.187256 
	C153.137817,376.492676 152.217728,353.591400 172.516937,338.200653 
	C173.577850,337.396332 174.169632,335.973206 174.978836,334.483154 
	C180.620544,331.718231 186.263229,329.308319 192.722931,326.927795 
	C194.857834,326.865082 196.254074,327.024811 197.481689,326.642731 
	C213.176620,321.757965 229.155380,322.318909 245.216110,323.933441 
	C247.509521,324.164032 249.856018,323.866486 252.177948,323.813385 
	C253.105331,325.971619 254.032730,328.129822 254.569427,330.645203 
	C243.674103,330.001556 233.161224,328.107666 222.666718,328.204468 
	C205.951416,328.358643 190.154633,332.802399 177.007568,343.714569 
	C164.784805,353.859619 162.849228,370.293640 174.546692,382.123718 
	C181.269913,388.923157 189.376572,393.095215 198.209671,396.286591 
	C199.703735,396.826355 200.732239,398.654755 201.975830,399.887787 
	C195.906586,399.401886 189.837326,398.915955 183.395767,398.267273 
z"/>
<path fill="#DEE5E6" opacity="1.000000" stroke="none" 
	d="
M260.050018,345.015198 
	C260.860138,346.634186 261.402832,348.494568 262.571899,349.789398 
	C263.387115,350.692230 265.060913,350.819885 266.717346,351.531311 
	C267.774536,353.085052 268.530121,354.371887 269.145416,355.722626 
	C271.932281,361.840515 272.483612,368.173767 268.428375,373.721466 
	C264.284332,379.390625 258.782501,383.766449 251.959564,386.143524 
	C242.027191,389.603882 231.995529,391.132538 221.327194,390.205261 
	C211.464554,389.348022 202.424377,386.972412 194.219330,381.533691 
	C180.120514,372.188263 179.865402,356.098877 194.241486,347.013794 
	C211.987564,335.799042 231.124451,335.456543 250.679611,341.861298 
	C253.811478,342.887024 256.926971,343.962646 260.050018,345.015198 
M257.981720,351.482208 
	C257.627167,351.130951 257.303070,350.741119 256.913696,350.434052 
	C243.037445,339.492645 213.055328,338.935852 198.967560,349.725037 
	C186.511368,359.264648 187.458374,369.811768 197.375305,377.446808 
	C213.466949,389.835663 238.463593,389.734375 255.485123,378.953949 
	C266.797424,371.789368 267.818634,361.469604 257.981720,351.482208 
z"/>
<path fill="#FE5F8E" opacity="1.000000" stroke="none" 
	d="
M158.073181,115.996742 
	C157.363525,108.038506 156.653854,100.080261 156.053955,91.371902 
	C157.338913,88.628128 158.627686,86.691994 159.671066,84.631592 
	C166.972107,70.213791 181.823074,63.465885 198.452621,67.068451 
	C211.561798,69.908379 222.419464,83.709366 223.113586,98.414581 
	C220.978622,99.273438 218.843658,100.132286 216.353699,100.591415 
	C215.553864,81.506195 197.086090,68.464836 180.413956,74.908440 
	C166.525406,80.276215 159.104691,97.198189 165.857468,110.431427 
	C167.635193,113.915199 169.198318,118.378647 174.593079,118.029243 
	C176.042160,121.774338 177.491241,125.519440 178.532928,129.633453 
	C171.956284,129.239716 167.866409,125.291321 163.923126,120.967804 
	C162.212616,119.092369 160.037354,117.640823 158.073181,115.996742 
z"/>
<path fill="#FF0609" opacity="1.000000" stroke="none" 
	d="
M273.004639,33.113388 
	C287.433960,37.453140 300.238800,45.024967 312.560913,53.413853 
	C319.205322,57.937363 325.402405,63.117950 331.273560,67.599274 
	C318.059082,69.605080 304.916412,71.599998 291.393127,73.209274 
	C289.172333,66.877319 287.955811,60.638767 285.339722,55.056057 
	C281.789062,47.478943 277.167114,40.403820 273.004639,33.113388 
z"/>
<path fill="#BECCCD" opacity="1.000000" stroke="none" 
	d="
M252.129944,323.441101 
	C249.856018,323.866486 247.509521,324.164032 245.216110,323.933441 
	C229.155380,322.318909 213.176620,321.757965 197.481689,326.642731 
	C196.254074,327.024811 194.857834,326.865082 193.081161,326.922211 
	C194.875732,325.281372 197.052551,323.552887 199.395218,322.089966 
	C212.151520,314.124359 223.571609,304.553070 233.829071,293.582062 
	C235.297531,292.011414 236.536713,290.226440 237.881989,288.540649 
	C238.436813,288.657135 238.991638,288.773621 239.546463,288.890137 
	C243.724945,300.283020 247.903427,311.675903 252.129944,323.441101 
z"/>
<path fill="#CFD9DA" opacity="1.000000" stroke="none" 
	d="
M202.442337,399.931519 
	C200.732239,398.654755 199.703735,396.826355 198.209671,396.286591 
	C189.376572,393.095215 181.269913,388.923157 174.546692,382.123718 
	C162.849228,370.293640 164.784805,353.859619 177.007568,343.714569 
	C190.154633,332.802399 205.951416,328.358643 222.666718,328.204468 
	C233.161224,328.107666 243.674103,330.001556 254.609390,331.005066 
	C255.703003,332.761963 256.365967,334.516174 256.645905,336.627197 
	C243.616180,333.575653 231.044769,330.977539 217.651016,332.796539 
	C205.849319,334.399353 194.885361,337.708313 185.296249,344.526703 
	C169.790146,355.552429 170.407074,373.947174 186.173584,384.537170 
	C197.665390,392.255920 210.329071,395.900818 224.125473,396.087982 
	C226.090790,396.114655 228.040054,397.324982 229.996750,397.987488 
	C220.967453,398.650085 211.938141,399.312683 202.442337,399.931519 
z"/>
<path fill="#D5DEDF" opacity="1.000000" stroke="none" 
	d="
M230.423065,397.998566 
	C228.040054,397.324982 226.090790,396.114655 224.125473,396.087982 
	C210.329071,395.900818 197.665390,392.255920 186.173584,384.537170 
	C170.407074,373.947174 169.790146,355.552429 185.296249,344.526703 
	C194.885361,337.708313 205.849319,334.399353 217.651016,332.796539 
	C231.044769,330.977539 243.616180,333.575653 256.664948,336.987183 
	C257.620270,338.118561 258.173523,339.246857 258.448914,340.679291 
	C255.169556,340.044189 252.186829,339.039154 249.163544,338.176361 
	C230.587448,332.875122 212.434753,333.811157 195.062744,342.553497 
	C187.341705,346.439056 180.739105,351.893921 179.100601,361.020874 
	C177.392166,370.537354 182.286514,377.471039 189.530975,382.659302 
	C209.046463,396.635773 241.992737,396.876862 262.288605,384.710968 
	C270.332947,379.888947 277.097931,373.273071 275.810730,362.732086 
	C275.274780,358.343292 272.653778,354.209137 270.980896,349.959198 
	C272.115967,349.390747 273.251068,348.822296 274.733582,348.500092 
	C279.215271,355.291718 283.358337,362.159698 279.820953,370.026001 
	C277.667664,374.814362 274.181488,379.209656 270.530640,383.057129 
	C267.228241,386.537323 262.889618,389.034210 259.007904,391.964691 
	C249.621735,393.979706 240.235565,395.994690 230.423065,397.998566 
z"/>
<path fill="#FF4E75" opacity="1.000000" stroke="none" 
	d="
M150.823273,82.081635 
	C149.859604,80.430588 148.895950,78.779526 147.945770,76.420898 
	C158.266449,59.318687 172.848511,51.595085 192.457077,51.822971 
	C212.546677,52.056450 236.686646,72.037743 236.125381,93.533157 
	C234.744370,94.073250 233.363358,94.613342 231.336578,94.948029 
	C228.363388,85.097649 224.538208,76.490883 217.061584,69.369102 
	C202.209167,55.221561 176.476349,54.969383 161.996689,69.569283 
	C158.064529,73.534103 154.536682,77.899887 150.823273,82.081635 
z"/>
<path fill="#FF4769" opacity="1.000000" stroke="none" 
	d="
M236.476364,93.432632 
	C236.686646,72.037743 212.546677,52.056450 192.457077,51.822971 
	C172.848511,51.595085 158.266449,59.318687 147.897980,76.102356 
	C146.553177,74.300232 145.269623,72.109077 144.116669,69.278229 
	C145.263382,67.580452 146.352188,66.582474 147.284531,65.455116 
	C158.339767,52.087399 172.971359,45.608929 189.874924,45.206982 
	C202.613800,44.904064 214.424759,49.553288 224.108154,57.886581 
	C234.101288,66.486435 241.600708,76.892105 242.005966,90.906784 
	C240.279755,91.715218 238.553543,92.523659 236.476364,93.432632 
z"/>
<path fill="#D9E1E2" opacity="1.000000" stroke="none" 
	d="
M270.631409,349.970367 
	C272.653778,354.209137 275.274780,358.343292 275.810730,362.732086 
	C277.097931,373.273071 270.332947,379.888947 262.288605,384.710968 
	C241.992737,396.876862 209.046463,396.635773 189.530975,382.659302 
	C182.286514,377.471039 177.392166,370.537354 179.100601,361.020874 
	C180.739105,351.893921 187.341705,346.439056 195.062744,342.553497 
	C212.434753,333.811157 230.587448,332.875122 249.163544,338.176361 
	C252.186829,339.039154 255.169556,340.044189 258.556335,340.988159 
	C259.285828,342.100708 259.630005,343.208588 260.012085,344.665833 
	C256.926971,343.962646 253.811478,342.887024 250.679611,341.861298 
	C231.124451,335.456543 211.987564,335.799042 194.241486,347.013794 
	C179.865402,356.098877 180.120514,372.188263 194.219330,381.533691 
	C202.424377,386.972412 211.464554,389.348022 221.327194,390.205261 
	C231.995529,391.132538 242.027191,389.603882 251.959564,386.143524 
	C258.782501,383.766449 264.284332,379.390625 268.428375,373.721466 
	C272.483612,368.173767 271.932281,361.840515 269.145416,355.722626 
	C268.530121,354.371887 267.774536,353.085052 267.047821,351.410522 
	C268.102051,350.695374 269.191956,350.338470 270.631409,349.970367 
z"/>
<path fill="#FF405F" opacity="1.000000" stroke="none" 
	d="
M242.360291,90.983566 
	C241.600708,76.892105 234.101288,66.486435 224.108154,57.886581 
	C214.424759,49.553288 202.613800,44.904064 189.874924,45.206982 
	C172.971359,45.608929 158.339767,52.087399 147.284531,65.455116 
	C146.352188,66.582474 145.263382,67.580452 144.060623,68.939644 
	C143.873993,69.240753 143.434082,69.132210 143.224335,69.046448 
	C142.827774,68.688652 142.611450,68.442574 142.143494,67.719376 
	C142.220016,65.394653 141.912720,63.064861 142.932938,61.848228 
	C145.798676,58.430721 148.862457,54.982544 152.465973,52.412872 
	C173.319748,37.542065 195.480209,35.021084 218.318649,47.269108 
	C234.869522,56.145164 244.988007,70.150795 248.003265,88.942467 
	C246.240387,89.648430 244.477509,90.354393 242.360291,90.983566 
z"/>
<path fill="#FF5781" opacity="1.000000" stroke="none" 
	d="
M150.869507,82.435188 
	C154.536682,77.899887 158.064529,73.534103 161.996689,69.569283 
	C176.476349,54.969383 202.209167,55.221561 217.061584,69.369102 
	C224.538208,76.490883 228.363388,85.097649 231.015625,94.983139 
	C228.843231,96.229729 226.346024,97.235794 223.481201,98.328217 
	C222.419464,83.709366 211.561798,69.908379 198.452621,67.068451 
	C181.823074,63.465885 166.972107,70.213791 159.671066,84.631592 
	C158.627686,86.691994 157.338913,88.628128 156.006073,90.954887 
	C154.204208,88.454910 152.559967,85.621826 150.869507,82.435188 
z"/>
<path fill="#FF3A56" opacity="1.000000" stroke="none" 
	d="
M248.346832,88.938751 
	C244.988007,70.150795 234.869522,56.145164 218.318649,47.269108 
	C195.480209,35.021084 173.319748,37.542065 152.465973,52.412872 
	C148.862457,54.982544 145.798676,58.430721 142.932938,61.848228 
	C141.912720,63.064861 142.220016,65.394653 141.957703,67.557602 
	C139.951111,67.962273 137.908127,68.025658 135.432587,67.638367 
	C135.632782,65.343544 135.853806,63.193130 136.962326,61.702908 
	C147.417618,47.647625 161.147232,38.977287 178.567093,35.833447 
	C206.527252,30.787354 233.573090,45.145947 245.650940,67.456787 
	C248.934021,73.521446 251.340546,80.060623 254.149353,86.382027 
	C252.329712,87.233032 250.510056,88.084045 248.346832,88.938751 
z"/>
<path fill="#FF679B" opacity="1.000000" stroke="none" 
	d="
M174.751129,117.741974 
	C169.198318,118.378647 167.635193,113.915199 165.857468,110.431427 
	C159.104691,97.198189 166.525406,80.276215 180.413956,74.908440 
	C197.086090,68.464836 215.553864,81.506195 215.998352,100.614914 
	C214.312210,101.735817 212.626465,102.433487 210.270386,102.885246 
	C209.398178,101.015907 209.128510,99.397606 209.005463,97.768234 
	C208.211807,87.259102 197.647980,78.540840 187.536270,80.079010 
	C175.454849,81.916786 167.716583,92.514267 170.905746,103.665039 
	C172.136337,107.967712 174.914154,111.827866 176.987061,115.889626 
	C176.294434,116.411324 175.601807,116.933014 174.751129,117.741974 
z"/>
<path fill="#FF0A0D" opacity="1.000000" stroke="none" 
	d="
M89.001755,80.025589 
	C72.485168,88.267403 57.399578,98.600800 43.700775,111.074257 
	C55.694584,90.602058 71.191963,73.348694 90.707253,59.033989 
	C91.604973,60.848526 92.194046,62.739445 91.925774,64.499695 
	C91.132812,69.702690 90.000999,74.854034 89.001755,80.025589 
z"/>
<path fill="#FF354E" opacity="1.000000" stroke="none" 
	d="
M254.469849,86.354065 
	C251.340546,80.060623 248.934021,73.521446 245.650940,67.456787 
	C233.573090,45.145947 206.527252,30.787354 178.567093,35.833447 
	C161.147232,38.977287 147.417618,47.647625 136.962326,61.702908 
	C135.853806,63.193130 135.632782,65.343544 134.998978,67.574036 
	C134.291321,68.081589 133.584717,68.202789 132.366974,67.976227 
	C131.999756,65.802505 131.578720,63.650467 132.405228,62.218498 
	C134.124969,59.238987 136.280319,56.428146 138.650360,53.920017 
	C155.527206,36.059830 176.215546,28.316153 200.555847,32.126801 
	C218.832214,34.988098 234.134048,43.945808 244.532440,59.333813 
	C249.916290,67.301056 253.058090,76.783340 257.212830,85.581146 
	C256.405334,85.829468 255.597824,86.077789 254.469849,86.354065 
z"/>
<path fill="#FF3149" opacity="1.000000" stroke="none" 
	d="
M257.527344,85.513779 
	C253.058090,76.783340 249.916290,67.301056 244.532440,59.333813 
	C234.134048,43.945808 218.832214,34.988098 200.555847,32.126801 
	C176.215546,28.316153 155.527206,36.059830 138.650360,53.920017 
	C136.280319,56.428146 134.124969,59.238987 132.405228,62.218498 
	C131.578720,63.650467 131.999756,65.802505 132.006699,67.990997 
	C130.376343,68.619873 128.595139,68.886200 126.415634,69.100128 
	C126.013306,68.873283 126.009277,68.698860 126.038681,67.904816 
	C130.153488,58.000290 136.485657,50.480461 144.330551,44.183563 
	C159.643616,31.892145 177.244797,26.181646 196.667068,28.286201 
	C216.331436,30.416992 233.020035,39.228924 245.368439,55.002438 
	C252.245392,63.786854 257.828522,73.396637 259.002869,84.895119 
	C258.615845,85.078888 258.228851,85.262657 257.527344,85.513779 
z"/>
<path fill="#FF6FA6" opacity="1.000000" stroke="none" 
	d="
M177.346848,115.882050 
	C174.914154,111.827866 172.136337,107.967712 170.905746,103.665039 
	C167.716583,92.514267 175.454849,81.916786 187.536270,80.079010 
	C197.647980,78.540840 208.211807,87.259102 209.005463,97.768234 
	C209.128510,99.397606 209.398178,101.015907 209.925079,102.913780 
	C207.405655,104.361336 204.561203,105.534439 201.362274,106.360161 
	C201.159180,104.707100 201.204300,103.378487 201.480164,102.099663 
	C202.739914,96.260178 199.848053,90.491928 194.498627,88.305206 
	C188.356964,85.794632 182.201492,87.927147 178.833008,93.732430 
	C175.910004,98.769981 177.148758,104.954857 181.684464,108.875168 
	C182.973816,109.989586 183.893341,111.531883 184.982468,112.877960 
	C182.557190,113.876793 180.131912,114.875641 177.346848,115.882050 
z"/>
<path fill="#FF2231" opacity="1.000000" stroke="none" 
	d="
M267.593353,81.698524 
	C266.631256,69.357330 260.285065,59.432495 253.305145,49.873672 
	C245.184479,38.752666 234.257690,31.122849 221.878571,25.359224 
	C220.064362,24.514551 218.644775,22.822273 217.010742,21.152409 
	C223.075531,21.363363 229.172165,21.944090 235.635559,23.098286 
	C239.416672,26.821753 242.776672,30.033148 246.254883,33.110966 
	C260.302979,45.541882 270.218628,60.449249 273.994659,79.071426 
	C271.984894,79.930962 269.975128,80.790504 267.593353,81.698524 
z"/>
<path fill="#FF2E43" opacity="1.000000" stroke="none" 
	d="
M259.307587,84.869995 
	C257.828522,73.396637 252.245392,63.786854 245.368439,55.002438 
	C233.020035,39.228924 216.331436,30.416992 196.667068,28.286201 
	C177.244797,26.181646 159.643616,31.892145 144.330551,44.183563 
	C136.485657,50.480461 130.153488,58.000290 126.035446,67.643120 
	C122.352684,66.580025 124.299919,64.249306 125.325554,62.447922 
	C131.181274,52.163116 139.276978,43.909931 149.077560,37.382233 
	C161.126038,29.357323 174.627502,25.080435 188.957214,25.142572 
	C220.859985,25.280912 248.912537,44.802494 259.684296,75.465935 
	C260.509583,77.815239 261.228790,80.201797 262.054626,82.972549 
	C261.278717,83.864334 260.445526,84.354607 259.307587,84.869995 
z"/>
<path fill="#FF78B5" opacity="1.000000" stroke="none" 
	d="
M185.350937,112.869247 
	C183.893341,111.531883 182.973816,109.989586 181.684464,108.875168 
	C177.148758,104.954857 175.910004,98.769981 178.833008,93.732430 
	C182.201492,87.927147 188.356964,85.794632 194.498627,88.305206 
	C199.848053,90.491928 202.739914,96.260178 201.480164,102.099663 
	C201.204300,103.378487 201.159180,104.707100 201.012390,106.422935 
	C195.917801,108.842232 190.818604,110.851379 185.350937,112.869247 
z"/>
<path fill="#FF141D" opacity="1.000000" stroke="none" 
	d="
M249.001862,26.046604 
	C253.817307,27.102806 258.632751,28.159012 263.719452,29.849903 
	C265.010010,32.506126 265.725739,34.766476 267.097748,36.510513 
	C276.134369,47.997307 283.133057,60.448498 286.002686,74.951202 
	C283.930542,75.688347 281.858398,76.425491 279.405212,76.759140 
	C278.727417,74.569168 278.643463,72.714973 278.100159,71.006905 
	C273.698975,57.170753 266.343262,45.111313 256.237915,34.677185 
	C253.632828,31.987316 251.403687,28.933331 249.001862,26.046604 
z"/>
<path fill="#FF2231" opacity="1.000000" stroke="none" 
	d="
M143.595215,30.507811 
	C143.148300,32.055618 142.721176,34.235294 141.403336,35.207287 
	C131.037796,42.852474 123.383690,52.692493 117.563873,64.032135 
	C116.623253,65.864906 116.501442,68.117905 116.000031,70.582748 
	C113.588951,71.677284 111.178963,72.365723 108.233337,72.678696 
	C107.935036,69.618088 107.433868,66.565224 108.552376,64.318817 
	C111.543488,58.311470 115.297813,52.688705 118.606071,46.832451 
	C119.934029,44.481689 120.888649,41.920021 122.013199,39.454350 
	C129.076248,36.496292 136.139313,33.538231 143.595215,30.507811 
z"/>
<path fill="#FF1A26" opacity="1.000000" stroke="none" 
	d="
M248.626160,25.890423 
	C251.403687,28.933331 253.632828,31.987316 256.237915,34.677185 
	C266.343262,45.111313 273.698975,57.170753 278.100159,71.006905 
	C278.643463,72.714973 278.727417,74.569168 279.040802,76.785370 
	C277.598297,77.804985 276.139191,78.394882 274.337372,79.028107 
	C270.218628,60.449249 260.302979,45.541882 246.254883,33.110966 
	C242.776672,30.033148 239.416672,26.821753 235.998474,23.296446 
	C240.079910,23.858837 244.165192,24.796539 248.626160,25.890423 
z"/>
<path fill="#CFD9DA" opacity="1.000000" stroke="none" 
	d="
M259.383881,391.938232 
	C262.889618,389.034210 267.228241,386.537323 270.530640,383.057129 
	C274.181488,379.209656 277.667664,374.814362 279.820953,370.026001 
	C283.358337,362.159698 279.215271,355.291718 275.045197,348.396790 
	C277.074127,347.342560 279.138824,346.637848 281.623962,346.278412 
	C282.817413,348.069794 283.506165,349.568939 284.377228,350.953339 
	C290.030029,359.937531 290.295197,368.817200 284.188690,377.753204 
	C283.124268,379.310852 282.691528,381.300171 281.967041,383.090088 
	C274.564636,386.030640 267.162262,388.971191 259.383881,391.938232 
z"/>
<path fill="#C7D3D4" opacity="1.000000" stroke="none" 
	d="
M282.334778,383.039124 
	C282.691528,381.300171 283.124268,379.310852 284.188690,377.753204 
	C290.295197,368.817200 290.030029,359.937531 284.377228,350.953339 
	C283.506165,349.568939 282.817413,348.069794 281.995178,346.255188 
	C284.363434,344.908844 286.780884,343.931061 289.570740,342.920746 
	C290.330109,344.115326 290.404785,345.591339 291.153137,346.530457 
	C297.603271,354.625122 300.002594,363.394562 296.124207,373.382416 
	C295.897125,373.967224 296.043823,374.697174 296.029236,375.794312 
	C291.595428,378.482086 287.148987,380.735138 282.334778,383.039124 
z"/>
<path fill="#FF1823" opacity="1.000000" stroke="none" 
	d="
M121.649582,39.567398 
	C120.888649,41.920021 119.934029,44.481689 118.606071,46.832451 
	C115.297813,52.688705 111.543488,58.311470 108.552376,64.318817 
	C107.433868,66.565224 107.935036,69.618088 107.850685,72.656296 
	C105.246536,73.994118 102.489395,74.978874 99.205078,75.655930 
	C95.561752,71.848938 98.717850,68.828117 99.709892,65.882362 
	C101.781097,59.732098 104.478691,53.792782 106.918961,47.766808 
	C111.707962,45.071354 116.496964,42.375896 121.649582,39.567398 
z"/>
<path fill="#FF0C12" opacity="1.000000" stroke="none" 
	d="
M286.376282,74.962372 
	C283.133057,60.448498 276.134369,47.997307 267.097748,36.510513 
	C265.725739,34.766476 265.010010,32.506126 263.983704,30.089069 
	C266.727142,30.786177 269.477600,31.878807 272.616364,33.042412 
	C277.167114,40.403820 281.789062,47.478943 285.339722,55.056057 
	C287.955811,60.638767 289.172333,66.877319 291.013458,73.225296 
	C289.592926,74.075813 288.171417,74.524681 286.376282,74.962372 
z"/>
<path fill="#FC1119" opacity="1.000000" stroke="none" 
	d="
M283.633270,144.241196 
	C284.068146,152.330948 278.059326,157.296448 274.096375,163.253983 
	C272.987244,164.921387 270.661804,165.779724 268.519348,167.009109 
	C266.176453,162.019531 264.208588,157.030045 262.220337,151.703918 
	C269.217621,148.983932 276.235291,146.600555 283.633270,144.241196 
z"/>
<path fill="#FF2231" opacity="1.000000" stroke="none" 
	d="
M120.010742,157.016190 
	C122.908707,155.253769 125.806671,153.491364 129.407791,151.879837 
	C130.769379,152.748444 131.333069,153.594177 132.101669,154.163055 
	C137.021545,157.804459 141.986450,161.385040 146.936554,164.985626 
	C143.996338,167.928818 141.056137,170.871994 137.646057,173.574066 
	C131.454376,167.894012 125.732559,162.455109 120.010742,157.016190 
z"/>
<path fill="#FC1119" opacity="1.000000" stroke="none" 
	d="
M106.576233,47.850647 
	C104.478691,53.792782 101.781097,59.732098 99.709892,65.882362 
	C98.717850,68.828117 95.561752,71.848938 98.829865,75.651413 
	C95.902130,77.298729 92.822426,78.642853 89.372238,80.006287 
	C90.000999,74.854034 91.132812,69.702690 91.925774,64.499695 
	C92.194046,62.739445 91.604973,60.848526 91.021774,58.934853 
	C95.835060,55.213081 101.034279,51.573784 106.576233,47.850647 
z"/>
<path fill="#FF0C12" opacity="1.000000" stroke="none" 
	d="
M127.186905,184.191437 
	C122.890343,181.318283 118.752182,178.466537 114.880226,175.290268 
	C112.476120,173.318085 110.475510,170.854019 108.149246,168.312439 
	C109.430901,166.411484 110.857101,164.808838 112.934334,163.124969 
	C119.764839,168.446869 125.944313,173.849976 132.123795,179.253082 
	C130.568451,180.860641 129.013123,182.468201 127.186905,184.191437 
z"/>
<path fill="#FF141D" opacity="1.000000" stroke="none" 
	d="
M132.431030,179.129913 
	C125.944313,173.849976 119.764839,168.446869 113.231133,162.996796 
	C115.038063,161.026016 117.199226,159.102203 119.685562,157.097290 
	C125.732559,162.455109 131.454376,167.894012 137.324097,173.734055 
	C135.894089,175.759033 134.316177,177.382874 132.431030,179.129913 
z"/>
<path fill="#FF5781" opacity="1.000000" stroke="none" 
	d="
M158.011551,116.439926 
	C160.037354,117.640823 162.212616,119.092369 163.923126,120.967804 
	C167.866409,125.291321 171.956284,129.239716 178.508865,130.006134 
	C181.067322,133.250320 178.698624,134.945084 175.917023,136.863419 
	C173.391647,136.287460 171.421021,135.809479 169.744339,134.828903 
	C166.084274,132.688370 162.573685,130.292282 159.002014,128.000610 
	C158.651321,124.294777 158.300613,120.588951 158.011551,116.439926 
z"/>
<path fill="#FF4E75" opacity="1.000000" stroke="none" 
	d="
M158.942078,128.455444 
	C162.573685,130.292282 166.084274,132.688370 169.744339,134.828903 
	C171.421021,135.809479 173.391647,136.287460 175.604492,136.993912 
	C172.676682,140.300995 169.373337,143.607544 165.406067,146.900482 
	C163.113281,145.817261 161.484390,144.747620 159.855530,143.677994 
	C159.531052,138.755432 159.206589,133.832855 158.942078,128.455444 
z"/>
<path fill="#FF2B3E" opacity="1.000000" stroke="none" 
	d="
M147.237320,164.873260 
	C141.986450,161.385040 137.021545,157.804459 132.101669,154.163055 
	C131.333069,153.594177 130.769379,152.748444 129.751740,151.866791 
	C132.017136,150.477585 134.641708,149.252304 137.668732,148.367584 
	C139.303146,150.203506 140.383713,151.864182 141.798447,153.160019 
	C144.782578,155.893341 147.941635,158.435699 151.028931,161.056396 
	C149.865311,162.291214 148.701691,163.526047 147.237320,164.873260 
z"/>
<path fill="#FF354E" opacity="1.000000" stroke="none" 
	d="
M151.346710,160.928619 
	C147.941635,158.435699 144.782578,155.893341 141.798447,153.160019 
	C140.383713,151.864182 139.303146,150.203506 138.035995,148.363815 
	C141.021774,147.189117 144.042740,146.358734 147.519791,145.892426 
	C151.315460,148.958176 154.655045,151.659851 157.994629,154.361511 
	C155.884583,156.507950 153.774536,158.654388 151.346710,160.928619 
z"/>
<path fill="#FF405F" opacity="1.000000" stroke="none" 
	d="
M158.263855,154.240753 
	C154.655045,151.659851 151.315460,148.958176 147.930145,145.860733 
	C151.595474,144.920578 155.306519,144.376190 159.436554,143.754898 
	C161.484390,144.747620 163.113281,145.817261 165.110092,147.018219 
	C163.163055,149.473038 160.848068,151.796509 158.263855,154.240753 
z"/>
<path fill="#453D41" opacity="1.000000" stroke="none" 
	d="
M188.866486,199.220139 
	C179.225708,208.527344 169.467224,217.558319 159.685532,226.564041 
	C159.084518,227.117386 158.299942,227.471359 157.251007,227.932648 
	C159.534912,225.092499 162.059082,222.126541 164.824036,219.405228 
	C171.441513,212.892166 178.125702,206.444244 184.914627,200.111191 
	C185.792099,199.292648 187.448151,199.308731 188.866486,199.220139 
z"/>
<path fill="#453D41" opacity="1.000000" stroke="none" 
	d="
M156.647034,227.811966 
	C156.201889,228.584808 155.431976,229.271530 154.347244,230.039703 
	C154.795715,229.322739 155.558975,228.524292 156.647034,227.811966 
z"/>
<path fill="#BECCCD" opacity="1.000000" stroke="none" 
	d="
M44.980915,311.014282 
	C44.836636,310.844971 44.714233,310.655914 44.591839,310.466858 
	C44.706146,310.516693 44.820450,310.566528 44.988411,310.783508 
	C45.042068,310.950714 45.002792,310.994598 44.980915,311.014282 
z"/>
<path fill="#FFF1F1" opacity="1.000000" stroke="none" 
	d="
M568.665588,151.534042 
	C570.895325,145.933151 572.971069,140.684830 575.478455,134.344955 
	C579.594910,144.807816 583.342346,154.332703 587.270264,164.316162 
	C579.281128,164.316162 571.876160,164.316162 563.719177,164.316162 
	C565.362915,160.052933 566.937195,155.969757 568.665588,151.534042 
z"/>
<path fill="#FFF1F1" opacity="1.000000" stroke="none" 
	d="
M805.778076,157.636902 
	C808.774780,150.055161 811.640991,142.832321 815.012634,134.335983 
	C819.154785,144.870819 822.887756,154.364944 826.798523,164.311188 
	C818.681458,164.311188 811.197510,164.311188 803.223572,164.311188 
	C804.139404,161.925247 804.893555,159.960526 805.778076,157.636902 
z"/>
<path fill="#FCFCFC" opacity="1.000000" stroke="none" 
	d="
M671.671814,305.477356 
	C679.916504,308.804535 687.866760,308.787445 695.962219,306.284790 
	C699.803833,305.097198 701.968994,303.246948 701.277771,298.835175 
	C700.898804,296.416168 701.210083,293.889008 701.210083,290.869751 
	C694.247742,290.869751 687.504395,290.869751 680.538940,290.869751 
	C680.538940,283.552094 680.538940,276.774414 680.538940,269.612793 
	C696.509033,269.612793 712.389465,269.612793 729.002258,269.612793 
	C729.002258,273.405304 729.002258,277.324738 729.002258,281.244171 
	C729.002258,291.909302 729.112000,302.576630 728.898376,313.237488 
	C728.861023,315.100006 727.996521,317.675995 726.613525,318.672028 
	C705.518127,333.865509 682.518616,337.880005 658.128235,328.300262 
	C635.551331,319.432831 622.766907,296.671692 625.653625,272.523346 
	C628.683228,247.179108 646.518127,228.005371 671.015320,224.084610 
	C691.082275,220.872910 709.351135,224.803986 725.351196,238.449997 
	C719.632324,245.328461 714.103638,251.978119 708.282288,258.979889 
	C698.131348,251.061783 687.039001,246.521805 674.068604,250.622040 
	C667.053467,252.839676 662.069702,257.610443 658.734314,264.119812 
	C650.917236,279.375702 656.446106,297.419952 671.671814,305.477356 
z"/>
<path fill="#FDFDFD" opacity="1.000000" stroke="none" 
	d="
M778.037109,234.088608 
	C779.778137,225.898880 784.428589,222.996033 792.348022,224.278885 
	C796.242432,224.909744 800.355713,224.705368 804.311584,224.304214 
	C808.783264,223.850769 810.980896,225.368896 812.761719,229.667114 
	C826.058167,261.759521 839.665466,293.723206 853.174194,325.727661 
	C853.811035,327.236389 854.437500,328.749542 855.263672,330.726929 
	C844.677979,330.726929 834.500000,330.726929 823.975525,330.726929 
	C821.933899,325.735962 820.009094,320.414886 817.533997,315.363434 
	C816.813660,313.893402 814.541199,312.317535 812.946228,312.281158 
	C801.462036,312.018982 789.966797,312.035278 778.481506,312.271851 
	C777.024353,312.301880 774.928162,313.805664 774.287170,315.170868 
	C771.890869,320.274780 769.976624,325.605042 767.845276,330.941498 
	C757.744263,330.941498 747.776306,330.941498 737.101562,330.941498 
	C750.789307,298.579834 764.351074,266.516052 778.037109,234.088608 
M797.872375,263.689056 
	C797.365479,262.554169 796.858582,261.419281 795.923706,259.326233 
	C791.776550,269.814667 788.005127,279.352692 784.204712,288.964142 
	C792.410400,288.964142 799.956055,288.964142 807.739929,288.964142 
	C804.408264,280.485046 801.249512,272.445953 797.872375,263.689056 
z"/>
<path fill="#FDFDFD" opacity="1.000000" stroke="none" 
	d="
M527.962402,281.015747 
	C535.461426,263.193329 542.895264,245.755951 550.155762,228.246658 
	C551.340027,225.390671 552.800232,224.183609 556.014587,224.307678 
	C562.834290,224.570908 569.680481,224.196198 576.494568,224.524887 
	C578.159607,224.605209 580.620300,226.014771 581.234131,227.447662 
	C595.703979,261.224762 609.971680,295.088409 624.264832,328.941101 
	C624.506531,329.513519 624.604675,330.146484 624.865234,331.100861 
	C615.088623,331.100861 605.616333,331.176178 596.148804,330.998444 
	C595.057739,330.977936 593.922913,329.625854 592.947754,328.738037 
	C592.499146,328.329559 592.390625,327.549500 592.122742,326.940216 
	C589.990662,322.091583 589.092712,315.372864 585.378052,312.919861 
	C581.640198,310.451416 575.100891,312.182892 569.788696,312.151337 
	C562.625854,312.108795 555.455994,311.978333 548.304993,312.272369 
	C546.822266,312.333374 544.756836,313.765350 544.085815,315.122284 
	C542.028564,319.281860 540.722107,323.811646 538.680908,327.980713 
	C538.005737,329.359772 536.016785,330.910431 534.575806,330.964081 
	C526.757202,331.255157 518.922119,331.102020 511.092712,331.101898 
	C509.932159,331.101898 508.771606,331.101929 506.784302,331.101929 
	C513.927185,314.233032 520.883362,297.804932 527.962402,281.015747 
M557.175537,280.588135 
	C556.135925,283.315216 555.096313,286.042297 553.994263,288.933105 
	C561.957764,288.933105 569.554199,288.933105 577.485474,288.933105 
	C573.549988,278.957001 569.810974,269.478943 565.741211,259.162506 
	C562.738403,266.726349 560.125305,273.308563 557.175537,280.588135 
z"/>
<path fill="#FEFEFE" opacity="1.000000" stroke="none" 
	d="
M423.880157,318.989044 
	C423.880157,287.534882 423.880157,256.578125 423.880157,224.614944 
	C443.400970,225.163025 462.631500,224.426559 481.533905,226.575928 
	C502.374603,228.945694 513.569824,243.702240 513.133911,264.138641 
	C512.724854,283.321136 499.597382,297.253082 478.801331,299.865051 
	C470.443359,300.914764 461.946533,300.858948 453.101196,301.328125 
	C453.101196,311.082794 453.101196,320.836029 453.101196,330.834869 
	C443.279846,330.834869 433.868927,330.834869 423.880157,330.834869 
	C423.880157,327.033325 423.880157,323.259888 423.880157,318.989044 
M483.036316,269.190887 
	C485.683167,259.564484 482.367584,252.359955 473.449646,250.698746 
	C466.900360,249.478760 460.048279,249.884201 453.408569,249.568939 
	C453.408569,259.584839 453.408569,268.649628 453.408569,277.892273 
	C458.901733,277.892273 464.062897,278.137909 469.190308,277.826843 
	C474.918182,277.479340 479.907257,275.420807 483.036316,269.190887 
z"/>
<path fill="#E5EAEB" opacity="1.000000" stroke="none" 
	d="
M258.239197,351.739594 
	C267.818634,361.469604 266.797424,371.789368 255.485123,378.953949 
	C238.463593,389.734375 213.466949,389.835663 197.375305,377.446808 
	C187.458374,369.811768 186.511368,359.264648 198.967560,349.725037 
	C213.055328,338.935852 243.037445,339.492645 256.913696,350.434052 
	C257.303070,350.741119 257.627167,351.130951 258.239197,351.739594 
M253.565811,360.181244 
	C249.719040,356.958710 246.335968,352.711182 241.932541,350.719116 
	C231.580994,346.036194 220.783463,347.086151 210.469254,351.412445 
	C205.096542,353.665985 200.597824,357.559906 200.180389,363.789398 
	C199.811890,369.288696 203.503220,372.971680 208.039688,375.609955 
	C220.694458,382.969482 236.888596,382.331146 249.048431,374.278137 
	C253.839981,371.104919 255.384903,366.137909 253.565811,360.181244 
z"/>
<path fill="#222224" opacity="1.000000" stroke="none" 
	d="
M797.981567,264.047974 
	C801.249512,272.445953 804.408264,280.485046 807.739929,288.964142 
	C799.956055,288.964142 792.410400,288.964142 784.204712,288.964142 
	C788.005127,279.352692 791.776550,269.814667 795.923706,259.326233 
	C796.858582,261.419281 797.365479,262.554169 797.981567,264.047974 
M788.839905,284.892639 
	C789.203369,285.469574 789.553711,286.538269 789.932312,286.548401 
	C794.334229,286.665802 798.740417,286.623474 803.857605,286.623474 
	C801.163757,279.788452 798.799744,273.790100 796.020752,266.738983 
	C793.379639,273.333801 791.228577,278.704987 788.839905,284.892639 
z"/>
<path fill="#222224" opacity="1.000000" stroke="none" 
	d="
M557.343872,280.239441 
	C560.125305,273.308563 562.738403,266.726349 565.741211,259.162506 
	C569.810974,269.478943 573.549988,278.957001 577.485474,288.933105 
	C569.554199,288.933105 561.957764,288.933105 553.994263,288.933105 
	C555.096313,286.042297 556.135925,283.315216 557.343872,280.239441 
M568.928528,274.591827 
	C567.938171,272.278046 566.947876,269.964294 565.638733,266.905731 
	C562.875793,273.938171 560.484497,280.024658 558.013123,286.314880 
	C563.332886,286.314880 568.132507,286.314880 573.477783,286.314880 
	C571.910339,282.329468 570.534973,278.832306 568.928528,274.591827 
z"/>
<path fill="#28292A" opacity="1.000000" stroke="none" 
	d="
M482.898926,269.557678 
	C479.907257,275.420807 474.918182,277.479340 469.190308,277.826843 
	C464.062897,278.137909 458.901733,277.892273 453.408569,277.892273 
	C453.408569,268.649628 453.408569,259.584839 453.408569,249.568939 
	C460.048279,249.884201 466.900360,249.478760 473.449646,250.698746 
	C482.367584,252.359955 485.683167,259.564484 482.898926,269.557678 
M459.640198,275.026947 
	C464.262146,274.707214 469.003326,274.924011 473.475464,273.930145 
	C478.905548,272.723389 481.283112,268.720581 481.085327,263.166565 
	C480.900085,257.964783 478.188812,254.135818 472.908600,253.333542 
	C467.448090,252.503830 461.839996,252.645096 455.976562,252.345261 
	C455.976562,259.536987 455.859222,265.842377 456.097382,272.134308 
	C456.135040,273.129333 457.777435,274.063599 459.640198,275.026947 
z"/>
<path fill="#EEF2F2" opacity="1.000000" stroke="none" 
	d="
M253.710052,360.531494 
	C255.384903,366.137909 253.839981,371.104919 249.048431,374.278137 
	C236.888596,382.331146 220.694458,382.969482 208.039688,375.609955 
	C203.503220,372.971680 199.811890,369.288696 200.180389,363.789398 
	C200.597824,357.559906 205.096542,353.665985 210.469254,351.412445 
	C220.783463,347.086151 231.580994,346.036194 241.932541,350.719116 
	C246.335968,352.711182 249.719040,356.958710 253.710052,360.531494 
M219.240982,356.410248 
	C217.905869,357.090881 216.465347,357.622620 215.254959,358.479462 
	C211.252686,361.312531 210.997986,365.596344 214.521255,369.018921 
	C220.516495,374.842926 232.869232,375.358704 239.393707,370.057465 
	C244.428787,365.966370 243.969589,360.788483 238.306152,357.664124 
	C232.426483,354.420532 226.303665,354.133972 219.240982,356.410248 
z"/>
<path fill="#EEEEEE" opacity="1.000000" stroke="none" 
	d="
M788.958679,284.484406 
	C791.228577,278.704987 793.379639,273.333801 796.020752,266.738983 
	C798.799744,273.790100 801.163757,279.788452 803.857605,286.623474 
	C798.740417,286.623474 794.334229,286.665802 789.932312,286.548401 
	C789.553711,286.538269 789.203369,285.469574 788.958679,284.484406 
z"/>
<path fill="#EEEEEE" opacity="1.000000" stroke="none" 
	d="
M569.044067,274.963470 
	C570.534973,278.832306 571.910339,282.329468 573.477783,286.314880 
	C568.132507,286.314880 563.332886,286.314880 558.013123,286.314880 
	C560.484497,280.024658 562.875793,273.938171 565.638733,266.905731 
	C566.947876,269.964294 567.938171,272.278046 569.044067,274.963470 
z"/>
<path fill="#FAFAFA" opacity="1.000000" stroke="none" 
	d="
M459.159058,275.026459 
	C457.777435,274.063599 456.135040,273.129333 456.097382,272.134308 
	C455.859222,265.842377 455.976562,259.536987 455.976562,252.345261 
	C461.839996,252.645096 467.448090,252.503830 472.908600,253.333542 
	C478.188812,254.135818 480.900085,257.964783 481.085327,263.166565 
	C481.283112,268.720581 478.905548,272.723389 473.475464,273.930145 
	C469.003326,274.924011 464.262146,274.707214 459.159058,275.026459 
z"/>
<path fill="#F8F9F9" opacity="1.000000" stroke="none" 
	d="
M219.613419,356.263306 
	C226.303665,354.133972 232.426483,354.420532 238.306152,357.664124 
	C243.969589,360.788483 244.428787,365.966370 239.393707,370.057465 
	C232.869232,375.358704 220.516495,374.842926 214.521255,369.018921 
	C210.997986,365.596344 211.252686,361.312531 215.254959,358.479462 
	C216.465347,357.622620 217.905869,357.090881 219.613419,356.263306 
z"/>
</svg>